<svg xmlns="http://www.w3.org/2000/svg" xmlns:xlink="http://www.w3.org/1999/xlink" xmlns:lucid="lucid" width="1942" height="1142"><g transform="translate(-759 -219)" lucid:page-tab-id="0_0"><path d="M500 0h2500v1500H500z" fill="#fff"/><path d="M1380 256a6 6 0 0 1 6-6h1288a6 6 0 0 1 6 6v1078a6 6 0 0 1-6 6H1386a6 6 0 0 1-6-6z" stroke="#232f3e" stroke-width="2" fill="#fff" fill-opacity="0"/><path d="M1380 250h56v56h-56v-56z" stroke="#fff" stroke-opacity="0" fill="#232f3e"/><path d="M1420.88 291.22h-25c-4.13.05-7.57-3.1-7.9-7.2v-.64c-.15-3.4 1.97-6.38 5.25-7.36v-.66c.12-4.22 2.44-7.75 6.24-9.57 4.13-1.86 8.73-.96 11.8 2.3 1.1 1.1 1.85 2.2 2.45 3.6 1.2-1 2.72-1.32 4.24-.9 2.24.8 3.68 2.74 3.76 5.1 3.68.65 6.32 3.8 6.28 7.56 0 7.07-7.04 7.73-7.12 7.76zm-26.7-13.88c-2.83.6-4.75 3.14-4.6 6.04v.53c.3 3.33 3.1 5.84 6.4 5.76h24.98c3.04-.3 5.4-2.64 5.68-5.7.28-3.43-2.24-6.5-5.68-6.78-.44-.05-.72-.44-.64-.87.08-1.83-1-3.44-2.72-4.13-1.32-.37-2.64.13-3.44 1.24-.2.25-.44.38-.76.33-.28-.05-.48-.24-.6-.5-.6-1.6-1.4-2.85-2.6-4.04-2.68-2.8-6.6-3.6-10.13-2-3.24 1.6-5.2 4.63-5.32 8.24-.04.4-.04.74 0 1.14.04.4-.2.76-.6.84z" stroke="#fff" stroke-opacity="0" fill="#fff"/><use xlink:href="#a" transform="matrix(1,0,0,1,1451,270) translate(566.4320987654321 24.888888888888893)"/><use xlink:href="#b" transform="matrix(1,0,0,1,1451,270) translate(645.7654320987655 24.888888888888893)"/><path d="M2260 366a6 6 0 0 1 6-6h368a6 6 0 0 1 6 6v928a6 6 0 0 1-6 6h-368a6 6 0 0 1-6-6z" fill="#e3fae3"/><path d="M2275.74 360h.97m4.88 0h9.73m4.88 0h.97m4.87 0h9.74m4.86 0h.98m4.87 0h9.73m4.87 0h.97m4.87 0h9.75m4.86 0h1m4.85 0h9.74m4.86 0h.97m4.87 0h9.73m4.87 0h.98m4.86 0h9.74m4.87 0h.97m4.87 0h9.72m4.87 0h.96m4.87 0h9.74m4.87 0h.97m4.88 0h9.73m4.88 0h.97m4.87 0h9.74m4.86 0h.98m4.87 0h9.73m4.87 0h.97m4.87 0h9.75m4.86 0h1m4.85 0h9.74m4.86 0h.97m4.87 0h9.73m4.87 0h.98m4.86 0h9.74m4.87 0h.97m4.87 0h9.72m4.87 0h.96m4.87 0h4.87l.94.07.9.22.88.35.8.5.72.6.6.72.5.8.37.88.23.9.07.95v5.02m0 5.02v1m0 5.03v10.04m0 5.03v1m0 5.03v10.04m0 5.03v1m0 5.02v10.04m0 5.02v1m0 5.02v10.05m0 5v1m0 5.03v10.05m0 5.02v1m0 5.02v10.05m0 5.02v1m0 5v10.06m0 5.02v1m0 5.03v10.05m0 5.02v1m0 5.03v10.04m0 5.02v1m0 5.03v10.03m0 5.02v1m0 5.03v10.04m0 5.02v1m0 5.03v10.04m0 5.03v1m0 5.03v10.04m0 5.02v1m0 5.03v10.04m0 5.02v1m0 5.02v10.04m0 5.03v1m0 5.03v10.05m0 5.02v1m0 5.02v10.05m0 5.02v1m0 5v10.06m0 5.02v1m0 5.03v10.05m0 5.02v1m0 5.03v10.04m0 5.02v1m0 5.03v10.03m0 5.02v1m0 5.03v10.04m0 5.02v1m0 5.03v10.04m0 5.03v1m0 5.03v10.04m0 5.02v1m0 5.03v10.04m0 5.02v1m0 5.02v10.04m0 5.03v1m0 5.03v10.05m0 5.02v1m0 5.02v10.05m0 5.02v1m0 5v10.06m0 5.02v1m0 5.03v10.05m0 5.02v1m0 5.03v10.04m0 5.02v1m0 5.03v10.03m0 5.02v1m0 5.03v10.04m0 5.02v1m0 5.03v10.04m0 5.03v1m0 5.03v10.04m0 5.02v1m0 5.03v10.04m0 5.02v1m0 5.02v10.05m0 5v1m0 5.03v10.05m0 5.02v1m0 5.02v10.05m0 5.02v1m0 5.02v10.04m0 5.02v1m0 5.03v10.05m0 5.02v1m0 5.03v10.04m0 5.02v1m0 5.03v10.03m0 5.02v1m0 5.03v5.02l-.07.94-.22.9-.35.88-.5.8-.6.72-.72.6-.8.5-.88.37-.9.23-.95.07h-4.87m-4.87 0h-.97m-4.88 0h-9.73m-4.88 0h-.97m-4.87 0h-9.74m-4.86 0h-.98m-4.87 0h-9.73m-4.87 0h-.97m-4.87 0h-9.75m-4.86 0h-1m-4.85 0h-9.74m-4.86 0h-.97m-4.87 0h-9.73m-4.87 0h-.98m-4.86 0h-9.74m-4.87 0h-.97m-4.87 0h-9.72m-4.87 0h-.96m-4.87 0h-9.74m-4.87 0h-.97m-4.88 0h-9.73m-4.88 0h-.97m-4.87 0h-9.74m-4.86 0h-.98m-4.87 0h-9.73m-4.87 0h-.97m-4.87 0h-9.75m-4.86 0h-1m-4.85 0h-9.74m-4.86 0h-.97m-4.87 0h-9.73m-4.87 0h-.98m-4.86 0h-9.74m-4.87 0h-.97m-4.87 0h-9.72m-4.87 0h-.96m-4.87 0H2266l-.94-.07-.9-.22-.88-.35-.8-.5-.72-.6-.6-.72-.5-.8-.37-.88-.23-.9-.07-.95v-5.02m0-5.02v-1m0-5.03v-10.04m0-5.03v-1m0-5.03v-10.04m0-5.02v-1m0-5.03v-10.04m0-5.02v-1m0-5.02v-10.05m0-5v-1m0-5.03v-10.05m0-5.02v-1m0-5.02v-10.05m0-5.02v-1m0-5.02v-10.04m0-5.02v-1m0-5.03v-10.05m0-5.02v-1m0-5.03v-10.04m0-5.02v-1m0-5.03v-10.03m0-5.02v-1m0-5.03v-10.04m0-5.02v-1m0-5.03v-10.04m0-5.03v-1m0-5.03v-10.04m0-5.02v-1m0-5.03V993.7m0-5.02v-1m0-5.02v-10.04m0-5.03v-1m0-5.03v-10.05m0-5.02v-1m0-5.02v-10.05m0-5.02v-1m0-5v-10.06m0-5.02v-1m0-5.03v-10.05m0-5.02v-1m0-5.03v-10.04m0-5.02v-1m0-5.03v-10.03m0-5.02v-1m0-5.03v-10.04m0-5.02v-1m0-5.03V803.9m0-5.03v-1m0-5.03V782.8m0-5.02v-1m0-5.03V761.7m0-5.02v-1m0-5.02v-10.04m0-5.03v-1m0-5.03v-10.05m0-5.02v-1m0-5.02v-10.05m0-5.02v-1m0-5v-10.06m0-5.02v-1m0-5.03v-10.05m0-5.02v-1m0-5.03v-10.04m0-5.02v-1m0-5.03v-10.03m0-5.02v-1m0-5.03v-10.04m0-5.02v-1m0-5.03V571.9m0-5.03v-1m0-5.03V550.8m0-5.02v-1m0-5.03V529.7m0-5.02v-1m0-5.02v-10.04m0-5.03v-1m0-5.03v-10.05m0-5.02v-1m0-5.02v-10.05m0-5.02v-1m0-5v-10.06m0-5.02v-1m0-5.03v-10.05m0-5.02v-1m0-5.03v-10.04m0-5.02v-1m0-5.03v-10.03m0-5.02v-1m0-5.03V366l.07-.94.22-.9.35-.88.5-.8.6-.72.72-.6.8-.5.88-.37.9-.23.95-.07h4.87" stroke="#3a414a" fill="none"/><path d="M780 246a6 6 0 0 1 6-6h508a6 6 0 0 1 6 6v408a6 6 0 0 1-6 6H786a6 6 0 0 1-6-6z" stroke="#000" stroke-width="2" fill-opacity="0"/><path d="M2367.5 979h170v171h-170V979z" stroke="#000" stroke-opacity="0" fill="#8c4fff"/><path d="M2505.37 1030.4c0-2.37-1.95-4.3-4.24-4.3-2.3 0-4.25 1.93-4.25 4.3 0 2.34 1.95 4.26 4.25 4.26s4.24-1.92 4.24-4.27zm-48.88 49.15c0-2.35-1.96-4.28-4.26-4.28s-4.24 1.93-4.24 4.28c0 2.35 1.95 4.27 4.24 4.27 2.3 0 4.25-1.92 4.25-4.27zm-4.26-29.93c2.3 0 4.25-1.92 4.25-4.27 0-2.35-1.96-4.28-4.26-4.28s-4.24 1.93-4.24 4.28c0 2.35 1.95 4.27 4.24 4.27zm-44.63 42.75c0-2.35-1.83-4.27-4.24-4.27-2.3 0-4.24 1.92-4.24 4.27 0 2.35 1.95 4.28 4.24 4.28 2.4 0 4.25-1.93 4.25-4.28zm102.02-61.98c0 4.7-3.8 8.54-8.5 8.54-1.7 0-3.43-.54-4.8-1.5l-36.85 37.73c.8 1.28 1.27 2.77 1.27 4.38 0 4.7-3.8 8.55-8.5 8.55s-8.5-3.85-8.5-8.55c0-3.96 2.77-7.27 6.33-8.23v-17.74c-1.27-.32-2.4-.96-3.33-1.82l-36.15 36.02c.8 1.4 1.25 2.88 1.25 4.6 0 4.7-3.78 8.54-8.5 8.54-4.7 0-8.48-3.84-8.48-8.55 0-4.7 3.8-8.55 8.5-8.55 1.48 0 2.86.43 4 1.07l36.84-36.77c-.22-.86-.45-1.82-.45-2.78 0-4.7 3.8-8.55 8.5-8.55s8.5 3.85 8.5 8.55c0 3.95-2.77 7.27-6.32 8.23v17.74c.68.2 1.37.43 2.06.85l37.05-37.94c-.57-1.17-.9-2.45-.9-3.84 0-4.72 3.77-8.56 8.48-8.56 4.7 0 8.5 3.84 8.5 8.55zm-106.26-14.98h97.77v2.14h4.24v-4.27c0-1.2-.9-2.15-2.18-2.15h-101.9c-1.27 0-2.18.96-2.18 2.14v66.25h4.24v-64.13zm97.77 27.8h4.24v72.67c0 1.16-.9 2.12-2.18 2.12h-101.9c-1.27 0-2.18-.96-2.18-2.13v-10.7h4.24v8.55h97.77v-70.54z" stroke="#000" stroke-opacity="0" fill="#fff"/><use xlink:href="#c" transform="matrix(1,0,0,1,2337.5,1159) translate(0.9259259259259238 17.77777777777778)"/><use xlink:href="#d" transform="matrix(1,0,0,1,2337.5,1159) translate(109.44444444444444 17.77777777777778)"/><use xlink:href="#e" transform="matrix(1,0,0,1,2337.5,1159) translate(40.49382716049382 44.44444444444444)"/><use xlink:href="#f" transform="matrix(1,0,0,1,2337.5,1159) translate(86.04938271604938 44.44444444444444)"/><use xlink:href="#g" transform="matrix(1,0,0,1,2337.5,1159) translate(9.537037037037038 71.11111111111111)"/><use xlink:href="#h" transform="matrix(1,0,0,1,2337.5,1159) translate(104.4753086419753 71.11111111111111)"/><use xlink:href="#i" transform="matrix(1,0,0,1,2337.5,1159) translate(147.6851851851852 71.11111111111111)"/><use xlink:href="#j" transform="matrix(1,0,0,1,2337.5,1159) translate(22.530864197530875 97.77777777777777)"/><path d="M820 366a6 6 0 0 1 6-6h428a6 6 0 0 1 6 6v228a6 6 0 0 1-6 6H826a6 6 0 0 1-6-6z" fill="#fff"/><path d="M846.38 360h2.04m10.2 0h20.37m10.18 0h2.04m10.2 0h20.37m10.18 0h2.04m10.2 0h20.37m10.18 0h2.04m10.2 0h20.37m10.18 0h2.04m10.2 0h20.37m10.18 0h2.04m10.2 0h20.37m10.18 0h2.04m10.2 0h20.37m10.18 0h2.04m10.2 0h20.37m10.18 0h2.04m10.2 0h20.37m10.18 0h2.04m10.2 0H1254l.94.07.9.22.88.35.8.5.72.6.6.72.5.8.37.88.23.9.07.95v10.86m0 10.85v2.2m0 10.84v21.72m0 10.85v2.2m0 10.84v21.72m0 10.85v2.2m0 10.84v21.72m0 10.85v2.2m0 10.84v21.72m0 10.85v2.2m0 10.84V594l-.07.94-.22.9-.35.88-.5.8-.6.72-.72.6-.8.5-.88.37-.9.23-.95.07h-10.2m-10.18 0h-2.04m-10.2 0h-20.37m-10.18 0h-2.04m-10.2 0h-20.37m-10.18 0h-2.04m-10.2 0h-20.37m-10.18 0h-2.04m-10.2 0h-20.37m-10.18 0h-2.04m-10.2 0h-20.37m-10.18 0h-2.04m-10.2 0h-20.37m-10.18 0h-2.04m-10.2 0h-20.37m-10.18 0h-2.04m-10.2 0h-20.37m-10.18 0h-2.04m-10.2 0h-20.37m-10.18 0h-2.04m-10.2 0H826l-.94-.07-.9-.22-.88-.35-.8-.5-.72-.6-.6-.72-.5-.8-.37-.88-.23-.9-.07-.95v-10.86m0-10.85v-2.2m0-10.84v-21.72m0-10.85v-2.2m0-10.84v-21.72m0-10.85v-2.2m0-10.84v-21.72m0-10.85v-2.2m0-10.84v-21.72m0-10.85v-2.2m0-10.84V366l.07-.94.22-.9.35-.88.5-.8.6-.72.72-.6.8-.5.88-.37.9-.23.95-.07h10.2" stroke="#3a414a" stroke-width="2" fill="none"/><path d="M926.5 512.23h-53c-3.15 0-5.73-2.58-5.73-5.74v-53.02c0-3.1 2.58-5.67 5.74-5.67h53c3.15 0 5.73 2.6 5.73 5.68v53c0 3.17-2.58 5.75-5.74 5.75zm-53-60.75h-.05c-1.1 0-2.07.9-2.07 2v53c0 1.17.97 2.07 2.13 2.07h53c1.15 0 2.12-.9 2.12-2.06v-53.02c-.07-1.1-.97-2.06-2.13-2z" stroke="#fff" stroke-opacity="0" fill="#3f8624"/><path d="M878.97 440h3.64v9.6h-3.63V440zM888.58 440h3.65v9.6h-3.65V440zM898.18 440h3.64v9.6h-3.64V440zM907.77 440h3.65v9.6h-3.65V440zM917.4 440h3.63v9.6h-3.64V440zM878.97 510.4h3.64v9.6h-3.63v-9.6zM888.58 510.4h3.65v9.6h-3.65v-9.6zM898.18 510.4h3.64v9.6h-3.64v-9.6zM907.77 510.4h3.65v9.6h-3.65v-9.6zM917.4 510.4h3.63v9.6h-3.64v-9.6zM860 458.97h9.6v3.64H860v-3.63zM860 468.58h9.6v3.65H860v-3.65zM860 478.18h9.6v3.64H860v-3.64zM860 487.77h9.6v3.65H860v-3.65zM860 497.4h9.6v3.63H860v-3.64zM930.4 458.97h9.6v3.64h-9.6v-3.63zM930.4 468.58h9.6v3.65h-9.6v-3.65zM930.4 478.18h9.6v3.64h-9.6v-3.64zM930.4 487.77h9.6v3.65h-9.6v-3.65zM930.4 497.4h9.6v3.63h-9.6v-3.64zM922.38 504.2H903.2c-1.02 0-1.8-.78-1.8-1.8v-10.93h-2.8v10.92c0 1.02-.78 1.8-1.8 1.8h-19.17c-1.02 0-1.85-.78-1.85-1.8v-43.2c0-.6.25-1.13.73-1.5.54-.33 1.13-.43 1.7-.24l29.6 10.12v-8.38c0-1.03.77-1.83 1.8-1.83h4.78c1.02 0 1.84.8 1.84 1.83v11.3l6.78 2.33c.73.23 1.22.9 1.22 1.7v27.86c0 1.02-.83 1.8-1.85 1.8zm-17.34-3.64h15.54v-24.73l-6.78-2.3c-.77-.28-1.26-.98-1.2-1.83v-10.68h-1.17v9.1c0 .6-.3 1.12-.77 1.5-.5.32-1.07.4-1.65.22l-29.58-10.07v38.8h15.54v-10.92c0-1 .83-1.83 1.84-1.83h6.4c1 0 1.84.84 1.84 1.83z" stroke="#fff" stroke-opacity="0" fill="#3f8624"/><path d="M890.4 483.42H884c-1 0-1.82-.8-1.82-1.82v-6.4c0-1 .8-1.83 1.82-1.83h6.4c1 0 1.83.82 1.83 1.82v6.4c0 1-.82 1.82-1.82 1.82zm-4.6-3.63h2.8V477h-2.8zM903.2 483.42h-6.4c-1 0-1.82-.8-1.82-1.82v-6.4c0-1 .8-1.83 1.8-1.83h6.43c1 0 1.82.82 1.82 1.82v6.4c0 1-.8 1.82-1.8 1.82zm-4.6-3.63h2.8V477h-2.8zM890.4 497.82H884c-1 0-1.82-.8-1.82-1.8v-6.43c0-1 .8-1.83 1.82-1.83h6.4c1 0 1.83.82 1.83 1.82v6.4c0 1-.82 1.82-1.82 1.82zm-4.6-3.63h2.8v-2.8h-2.8zM916 497.82h-6.4c-1 0-1.83-.8-1.83-1.8v-6.43c0-1 .82-1.83 1.82-1.83h6.4c1 0 1.82.82 1.82 1.82v6.4c0 1-.8 1.82-1.82 1.82zm-4.6-3.63h2.8v-2.8h-2.8z" stroke="#fff" stroke-opacity="0" fill="#3f8624"/><use xlink:href="#k" transform="matrix(1,0,0,1,830,529) translate(24.01234567901234 17.77777777777778)"/><use xlink:href="#l" transform="matrix(1,0,0,1,830,529) translate(22.53086419753086 44.44444444444444)"/><path d="M1066.5 512.23h-53c-3.15 0-5.73-2.58-5.73-5.74v-53.02c0-3.1 2.58-5.67 5.74-5.67h53c3.15 0 5.73 2.6 5.73 5.68v53c0 3.17-2.58 5.75-5.74 5.75zm-53-60.75h-.05c-1.1 0-2.07.9-2.07 2v53c0 1.17.97 2.07 2.13 2.07h53c1.15 0 2.12-.9 2.12-2.06v-53.02c-.07-1.1-.97-2.06-2.13-2z" stroke="#fff" stroke-opacity="0" fill="#3f8624"/><path d="M1018.97 440h3.64v9.6h-3.63V440zM1028.58 440h3.65v9.6h-3.65V440zM1038.18 440h3.64v9.6h-3.64V440zM1047.77 440h3.65v9.6h-3.65V440zM1057.4 440h3.63v9.6h-3.64V440zM1018.97 510.4h3.64v9.6h-3.63v-9.6zM1028.58 510.4h3.65v9.6h-3.65v-9.6zM1038.18 510.4h3.64v9.6h-3.64v-9.6zM1047.77 510.4h3.65v9.6h-3.65v-9.6zM1057.4 510.4h3.63v9.6h-3.64v-9.6zM1000 458.97h9.6v3.64h-9.6v-3.63zM1000 468.58h9.6v3.65h-9.6v-3.65zM1000 478.18h9.6v3.64h-9.6v-3.64zM1000 487.77h9.6v3.65h-9.6v-3.65zM1000 497.4h9.6v3.63h-9.6v-3.64zM1070.4 458.97h9.6v3.64h-9.6v-3.63zM1070.4 468.58h9.6v3.65h-9.6v-3.65zM1070.4 478.18h9.6v3.64h-9.6v-3.64zM1070.4 487.77h9.6v3.65h-9.6v-3.65zM1070.4 497.4h9.6v3.63h-9.6v-3.64zM1062.38 504.2h-19.18c-1.02 0-1.8-.78-1.8-1.8v-10.93h-2.8v10.92c0 1.02-.78 1.8-1.8 1.8h-19.17c-1.02 0-1.85-.78-1.85-1.8v-43.2c0-.6.25-1.13.73-1.5.54-.33 1.13-.43 1.7-.24l29.6 10.12v-8.38c0-1.03.77-1.83 1.8-1.83h4.78c1.02 0 1.84.8 1.84 1.83v11.3l6.78 2.33c.73.23 1.2.9 1.2 1.7v27.86c0 1.02-.8 1.8-1.83 1.8zm-17.34-3.64h15.54v-24.73l-6.78-2.3c-.77-.28-1.26-.98-1.2-1.83v-10.68h-1.17v9.1c0 .6-.3 1.12-.78 1.5-.48.32-1.06.4-1.64.22l-29.58-10.07v38.8h15.54v-10.92c0-1 .83-1.83 1.84-1.83h6.4c1 0 1.84.84 1.84 1.83z" stroke="#fff" stroke-opacity="0" fill="#3f8624"/><path d="M1030.4 483.42h-6.4c-1 0-1.82-.8-1.82-1.82v-6.4c0-1 .8-1.83 1.82-1.83h6.4c1 0 1.83.82 1.83 1.82v6.4c0 1-.82 1.82-1.82 1.82zm-4.6-3.63h2.8V477h-2.8zM1043.2 483.42h-6.4c-1 0-1.83-.8-1.83-1.82v-6.4c0-1 .82-1.83 1.82-1.83h6.4c1 0 1.83.82 1.83 1.82v6.4c0 1-.82 1.82-1.82 1.82zm-4.6-3.63h2.8V477h-2.8zM1030.4 497.82h-6.4c-1 0-1.82-.8-1.82-1.8v-6.43c0-1 .8-1.83 1.82-1.83h6.4c1 0 1.83.82 1.83 1.82v6.4c0 1-.82 1.82-1.82 1.82zm-4.6-3.63h2.8v-2.8h-2.8zM1056 497.82h-6.4c-1 0-1.83-.8-1.83-1.8v-6.43c0-1 .82-1.83 1.82-1.83h6.4c1 0 1.82.82 1.82 1.82v6.4c0 1-.8 1.82-1.8 1.82zm-4.6-3.63h2.8v-2.8h-2.8z" stroke="#fff" stroke-opacity="0" fill="#3f8624"/><use xlink:href="#m" transform="matrix(1,0,0,1,970,529) translate(29.32098765432098 17.77777777777778)"/><use xlink:href="#n" transform="matrix(1,0,0,1,970,529) translate(22.53086419753086 44.44444444444444)"/><path d="M1206.5 512.23h-53c-3.15 0-5.73-2.58-5.73-5.74v-53.02c0-3.1 2.58-5.67 5.74-5.67h53c3.15 0 5.73 2.6 5.73 5.68v53c0 3.17-2.58 5.75-5.74 5.75zm-53-60.75h-.05c-1.1 0-2.07.9-2.07 2v53c0 1.17.97 2.07 2.13 2.07h53c1.15 0 2.12-.9 2.12-2.06v-53.02c-.07-1.1-.97-2.06-2.13-2z" stroke="#fff" stroke-opacity="0" fill="#3f8624"/><path d="M1158.97 440h3.64v9.6h-3.63V440zM1168.58 440h3.65v9.6h-3.65V440zM1178.18 440h3.64v9.6h-3.64V440zM1187.77 440h3.65v9.6h-3.65V440zM1197.4 440h3.63v9.6h-3.64V440zM1158.97 510.4h3.64v9.6h-3.63v-9.6zM1168.58 510.4h3.65v9.6h-3.65v-9.6zM1178.18 510.4h3.64v9.6h-3.64v-9.6zM1187.77 510.4h3.65v9.6h-3.65v-9.6zM1197.4 510.4h3.63v9.6h-3.64v-9.6zM1140 458.97h9.6v3.64h-9.6v-3.63zM1140 468.58h9.6v3.65h-9.6v-3.65zM1140 478.18h9.6v3.64h-9.6v-3.64zM1140 487.77h9.6v3.65h-9.6v-3.65zM1140 497.4h9.6v3.63h-9.6v-3.64zM1210.4 458.97h9.6v3.64h-9.6v-3.63zM1210.4 468.58h9.6v3.65h-9.6v-3.65zM1210.4 478.18h9.6v3.64h-9.6v-3.64zM1210.4 487.77h9.6v3.65h-9.6v-3.65zM1210.4 497.4h9.6v3.63h-9.6v-3.64zM1202.38 504.2h-19.18c-1.02 0-1.8-.78-1.8-1.8v-10.93h-2.8v10.92c0 1.02-.78 1.8-1.8 1.8h-19.17c-1.02 0-1.85-.78-1.85-1.8v-43.2c0-.6.25-1.13.73-1.5.54-.33 1.13-.43 1.7-.24l29.6 10.12v-8.38c0-1.03.77-1.83 1.8-1.83h4.78c1.02 0 1.84.8 1.84 1.83v11.3l6.78 2.33c.73.23 1.2.9 1.2 1.7v27.86c0 1.02-.8 1.8-1.83 1.8zm-17.34-3.64h15.54v-24.73l-6.78-2.3c-.77-.28-1.26-.98-1.2-1.83v-10.68h-1.17v9.1c0 .6-.3 1.12-.78 1.5-.48.32-1.06.4-1.64.22l-29.58-10.07v38.8h15.54v-10.92c0-1 .83-1.83 1.84-1.83h6.4c1 0 1.84.84 1.84 1.83z" stroke="#fff" stroke-opacity="0" fill="#3f8624"/><path d="M1170.4 483.42h-6.4c-1 0-1.82-.8-1.82-1.82v-6.4c0-1 .8-1.83 1.8-1.83h6.43c1 0 1.83.82 1.83 1.82v6.4c0 1-.82 1.82-1.82 1.82zm-4.6-3.63h2.8V477h-2.8zM1183.2 483.42h-6.4c-1 0-1.83-.8-1.83-1.82v-6.4c0-1 .82-1.83 1.82-1.83h6.4c1 0 1.83.82 1.83 1.82v6.4c0 1-.82 1.82-1.82 1.82zm-4.6-3.63h2.8V477h-2.8zM1170.4 497.82h-6.4c-1 0-1.82-.8-1.82-1.8v-6.43c0-1 .8-1.83 1.8-1.83h6.43c1 0 1.83.82 1.83 1.82v6.4c0 1-.82 1.82-1.82 1.82zm-4.6-3.63h2.8v-2.8h-2.8zM1196 497.82h-6.4c-1 0-1.83-.8-1.83-1.8v-6.43c0-1 .82-1.83 1.82-1.83h6.4c1 0 1.82.82 1.82 1.82v6.4c0 1-.8 1.82-1.8 1.82zm-4.6-3.63h2.8v-2.8h-2.8z" stroke="#fff" stroke-opacity="0" fill="#3f8624"/><use xlink:href="#o" transform="matrix(1,0,0,1,1110,529) translate(34.876543209876544 17.77777777777778)"/><use xlink:href="#p" transform="matrix(1,0,0,1,1110,529) translate(22.53086419753086 44.44444444444444)"/><path d="M920 379a6 6 0 0 1 6-6h228a6 6 0 0 1 6 6v48a6 6 0 0 1-6 6H926a6 6 0 0 1-6-6z" fill="none"/><use xlink:href="#q" transform="matrix(1,0,0,1,920,373) translate(41.6358024691358 34.44444444444444)"/><use xlink:href="#r" transform="matrix(1,0,0,1,920,373) translate(120.64814814814814 34.44444444444444)"/><path d="M860 281a6 6 0 0 1 6-6h228a6 6 0 0 1 6 6v48a6 6 0 0 1-6 6H866a6 6 0 0 1-6-6z" fill="none"/><use xlink:href="#s" transform="matrix(1,0,0,1,860,275) translate(6.962962962962962 36.22222222222222)"/><use xlink:href="#t" transform="matrix(1,0,0,1,860,275) translate(129.50617283950618 36.22222222222222)"/><path d="M849.6 335h-47.9c-.93 0-1.7-.8-1.7-1.68v-57.44c0-.96.77-1.76 1.7-1.76h11.07v-17.44c0-.88.77-1.68 1.7-1.68h22.36c.93 0 1.7.8 1.7 1.68v17.44h11.08c.93 0 1.7.8 1.7 1.76v57.44c0 .88-.77 1.68-1.7 1.68zm-46.2-3.44h44.5v-54h-11.07c-.97 0-1.7-.8-1.7-1.68v-17.44h-18.97v17.44c0 .88-.72 1.68-1.7 1.68H803.4z" stroke="#fff" stroke-opacity="0" fill="#232f3e"/><path d="M820.76 261.5h3.4v14.35h-3.4v-14.37zM827.15 261.5h3.4v14.35h-3.4v-14.37zM812.77 280.63h3.4v8h-3.4v-8zM812.77 293.4h3.4v7.98h-3.4v-7.98zM812.77 306.17h3.4v7.98h-3.4v-7.98zM812.77 318.93h3.4v9.57h-3.4v-9.57zM806.4 280.63h3.4v8h-3.4v-8zM806.4 293.4h3.4v7.98h-3.4v-7.98zM806.4 306.17h3.4v7.98h-3.4v-7.98zM806.4 318.93h3.4v9.57h-3.4v-9.57zM820.76 280.63h3.4v8h-3.4v-8zM820.76 293.4h3.4v7.98h-3.4v-7.98zM820.76 306.17h3.4v7.98h-3.4v-7.98zM820.76 318.93h3.4v9.57h-3.4v-9.57zM827.15 280.63h3.4v8h-3.4v-8zM827.15 293.4h3.4v7.98h-3.4v-7.98zM827.15 306.17h3.4v7.98h-3.4v-7.98zM827.15 318.93h3.4v9.57h-3.4v-9.57zM835.12 280.63h3.4v8h-3.4v-8zM835.12 293.4h3.4v7.98h-3.4v-7.98zM835.12 306.17h3.4v7.98h-3.4v-7.98zM835.12 318.93h3.4v9.57h-3.4v-9.57zM841.5 280.63h3.4v8h-3.4v-8zM841.5 293.4h3.4v7.98h-3.4v-7.98zM841.5 306.17h3.4v7.98h-3.4v-7.98zM841.5 318.93h3.4v9.57h-3.4v-9.57z" stroke="#fff" stroke-opacity="0" fill="#232f3e"/><path d="M2371.25 454h157.5v150.75h-157.5V454z" stroke="#000" stroke-opacity="0" fill="#e7157b"/><path d="M2427.84 536.23l5.84-5.54c.33-.36.55-.88.55-1.4 0-.43-.1-.95-.55-1.3l-5.84-5.63-2.87 2.6 2.54 2.42h-9.03v3.8h9.15l-2.65 2.43 2.87 2.6zm45.1.18l7.82-5.63c.55-.34.77-.86.77-1.47 0-.6-.22-1.13-.77-1.47l-7.83-5.64-2.42 2.94 3.2 2.25h-7.93v3.8h7.93l-3.2 2.26 2.43 2.95zm-32.42-7.1c0 4-.66 7.7-2 11 3.54-1.3 7.5-2 11.48-2 4.08 0 8.05.7 11.58 2-1.33-3.3-2.1-7-2.1-11s.77-7.7 2.1-11c-7.06 2.6-16 2.6-23.05 0 1.33 3.3 2 7 2 11zm-9.6 18.2c-.43-.34-.54-.86-.54-1.3 0-.52.1-1.04.55-1.38 3.53-3.4 5.73-9.2 5.73-15.52 0-6.33-2.2-12.14-5.73-15.52-.44-.34-.55-.86-.55-1.38 0-.44.1-.96.55-1.3.77-.7 1.98-.7 2.75 0 7.6 7.28 25.03 7.28 32.75 0 .77-.7 1.98-.7 2.75 0 .33.34.56.86.56 1.3 0 .52-.23 1.04-.56 1.38-3.63 3.38-5.73 9.2-5.73 15.52 0 6.33 2.1 12.13 5.73 15.52.33.34.56.86.56 1.38 0 .44-.23.96-.56 1.3-.44.35-.88.52-1.43.52-.44 0-1-.17-1.32-.52-7.72-7.28-25.14-7.28-32.75 0-.77.7-1.98.7-2.75 0zm70.24-18.2c0-1.73-.66-3.38-2-4.6-1.3-1.3-3.07-1.9-4.84-1.9-1.76 0-3.53.6-4.85 1.9-2.65 2.52-2.65 6.68 0 9.2 2.65 2.6 7.06 2.6 9.7 0 1.32-1.22 2-2.87 2-4.6zm.77 7.28c-2.1 2-4.85 3.03-7.6 3.03-2.77 0-5.52-1.02-7.62-3.02-4.3-4-4.3-10.57 0-14.56 4.2-4 11.04-4 15.23 0 4.3 4 4.3 10.57 0 14.56zm-89.4-7.2c-.02-1.8-.68-3.37-2-4.67-1.32-1.2-2.98-1.9-4.85-1.9-1.88 0-3.53.7-4.85 1.9-1.32 1.3-2 2.87-2 4.7 0 1.72.68 3.37 2 4.58 2.64 2.43 7.16 2.43 9.7 0 1.32-1.2 1.98-2.86 1.98-4.6zm.76 7.2c-2.1 2.08-4.86 3.03-7.62 3.03s-5.5-.94-7.6-3.02c-4.3-4-4.3-10.5 0-14.48 4.18-4.07 11.02-4.07 15.2 0 4.3 4 4.3 10.5 0 14.48zm66.03 20.72c-7.83 7.45-18.3 11.6-29.44 11.6s-21.62-4.15-29.45-11.6c-5.4-5.12-8.38-11.27-9.92-15.52l-3.75 1.22c1.66 4.68 4.96 11.35 10.92 17 8.6 8.13 19.95 12.64 32.2 12.64 12.12 0 23.58-4.5 32.18-12.65 4.96-4.78 8.93-10.76 11.14-17l-3.64-1.22c-2.1 5.72-5.73 11.18-10.25 15.52zm-68.8-40.48l-3.75-1.22c2.43-6.58 6.3-12.56 10.92-17 8.6-8.13 19.95-12.64 32.2-12.64 12.12 0 23.58 4.5 32.18 12.65 4.85 4.7 8.93 10.85 11.14 17l-3.64 1.22c-2.1-5.64-5.84-11.27-10.25-15.52-7.83-7.45-18.3-11.6-29.44-11.6s-21.62 4.15-29.45 11.6c-4.2 4-7.7 9.54-9.92 15.52z" stroke="#000" stroke-opacity="0" fill="#fff"/><use xlink:href="#u" transform="matrix(1,0,0,1,2341.25,613.7499958333333) translate(27.51851851851852 17.77777777777778)"/><use xlink:href="#v" transform="matrix(1,0,0,1,2341.25,613.7499958333333) translate(79.24691358024691 17.77777777777778)"/><use xlink:href="#w" transform="matrix(1,0,0,1,2341.25,613.7499958333333) translate(133.81481481481484 17.77777777777778)"/><use xlink:href="#x" transform="matrix(1,0,0,1,2341.25,613.7499958333333) translate(45.57407407407408 44.44444444444444)"/><use xlink:href="#y" transform="matrix(1,0,0,1,2341.25,613.7499958333333) translate(131.7469135802469 44.44444444444444)"/><use xlink:href="#z" transform="matrix(1,0,0,1,2341.25,613.7499958333333) translate(17.518518518518505 71.11111111111111)"/><use xlink:href="#A" transform="matrix(1,0,0,1,2341.25,613.7499958333333) translate(131.03703703703704 71.11111111111111)"/><use xlink:href="#B" transform="matrix(1,0,0,1,2341.25,613.7499958333333) translate(68.32098765432099 97.77777777777777)"/><path d="M1789.5 882v58.5" stroke="#5e5e5e" stroke-width="2" fill="none"/><path d="M1790.47 882.03h-1.94V881h1.94z" stroke="#5e5e5e" stroke-width=".05" fill="#5e5e5e"/><path d="M1789.5 955.76l-4.63-14.26h9.27z" stroke="#5e5e5e" stroke-width="2" fill="#5e5e5e"/><path d="M1419 366a6 6 0 0 1 6-6h729a6 6 0 0 1 6 6v508a6 6 0 0 1-6 6h-729a6 6 0 0 1-6-6z" fill="#fff"/><path d="M1445.42 360h2.04m10.2 0h20.43m10.2 0h2.05m10.2 0h20.42m10.2 0h2.06m10.2 0h20.43m10.2 0h2.05m10.22 0h20.42m10.2 0h2.05m10.2 0h20.42m10.2 0h2.05m10.2 0h20.43m10.2 0h2.06m10.2 0h20.43m10.2 0h2.04m10.2 0h20.43m10.2 0h2.05m10.2 0h20.43m10.2 0h2.05m10.2 0h20.43m10.2 0h2.06m10.2 0h20.42m10.2 0h2.05m10.2 0h20.43m10.2 0h2.05m10.2 0h20.43m10.2 0h2.05m10.2 0h20.43m10.2 0h2.06m10.2 0h20.43m10.2 0h2.05m10.2 0h20.43m10.2 0h2.05m10.2 0H2154l.94.07.9.22.88.35.8.5.72.6.6.72.5.8.37.88.23.9.07.95v10.08m0 10.08v2m0 10.1v20.15m0 10.1v2m0 10.1v20.15m0 10.07v2.02m0 10.08v20.16m0 10.08v2m0 10.1v20.15m0 10.1v2m0 10.1v20.15m0 10.08v2m0 10.1v20.15m0 10.08v2m0 10.1v20.15m0 10.1v2m0 10.1v20.15m0 10.08v2m0 10.1v20.15m0 10.08v2m0 10.1v20.15m0 10.1v2m0 10.1v20.15m0 10.08v2m0 10.1V874l-.07.94-.22.9-.35.88-.5.8-.6.72-.72.6-.8.5-.88.37-.9.23-.95.07h-10.2m-10.22 0h-2.04m-10.2 0h-20.43m-10.2 0h-2.04m-10.2 0h-20.43m-10.22 0h-2.03m-10.2 0h-20.43m-10.2 0h-2.05m-10.22 0h-20.42m-10.2 0H1960m-10.2 0h-20.42m-10.2 0h-2.05m-10.2 0h-20.43m-10.2 0h-2.06m-10.2 0h-20.43m-10.2 0h-2.04m-10.2 0h-20.43m-10.2 0h-2.05m-10.2 0h-20.43m-10.2 0h-2.05m-10.2 0h-20.43m-10.2 0h-2.06m-10.2 0h-20.42m-10.2 0h-2.05m-10.2 0h-20.43m-10.2 0h-2.05m-10.2 0h-20.43m-10.2 0h-2.05m-10.2 0h-20.43m-10.2 0h-2.06m-10.2 0h-20.42m-10.2 0h-2.06m-10.2 0h-20.43m-10.2 0h-2.05m-10.2 0H1425l-.94-.07-.9-.22-.88-.35-.8-.5-.72-.6-.6-.72-.5-.8-.37-.88-.23-.9-.07-.95v-10.08m0-10.08v-2m0-10.1V821.6m0-10.1v-2m0-10.1v-20.15m0-10.08v-2m0-10.1v-20.15m0-10.08v-2m0-10.1V694.6m0-10.1v-2m0-10.1v-20.15m0-10.08v-2m0-10.1v-20.15m0-10.08v-2m0-10.1V567.6m0-10.1v-2m0-10.1v-20.15m0-10.08v-2m0-10.1v-20.15m0-10.08v-2m0-10.1V440.6m0-10.1v-2m0-10.1v-20.15m0-10.07v-2.02m0-10.08V366l.07-.94.22-.9.35-.88.5-.8.6-.72.72-.6.8-.5.88-.37.9-.23.95-.07h10.2" stroke="#3a414a" stroke-width="2" fill="none"/><path d="M2094.05 777.1h-20c-1 0-1.93-.6-2.33-1.5l-28-60.05h-11.3c-1.4 0-2.6-1.17-2.6-2.6v-17.33c0-1.42 1.2-2.6 2.6-2.6h24.93c1.07 0 1.94.6 2.34 1.5l27.93 60.05h6.42c1.4 0 2.6 1.17 2.6 2.7v17.23c0 1.42-1.2 2.6-2.6 2.6zm-18.38-5.3h15.7v-11.93h-5.4c-1 0-1.95-.6-2.35-1.52l-27.88-60.12h-20.65v12.02h10.28c1.07 0 2 .6 2.4 1.52z" stroke="#fff" stroke-opacity="0" fill="#d86613"/><path d="M2039.8 777.1h-21.34c-1.4 0-2.6-1.2-2.6-2.65 0-.4.08-.73.27-1.1l22.3-46.72c.46-.93 1.34-1.5 2.37-1.5 1.04 0 1.92.52 2.38 1.45l10.67 22.1c.34.72.34 1.5 0 2.23l-11.67 24.7c-.46.93-1.34 1.5-2.37 1.5zm-17.13-5.25h15.46l10.52-22.03-7.88-16z" stroke="#fff" stroke-opacity="0" fill="#d86613"/><path d="M2057.08 801.75c-34.08 0-61.75-27.66-61.75-61.75 0-34.1 27.67-61.75 61.75-61.75 34.1 0 61.75 27.66 61.75 61.75 0 34.1-27.66 61.75-61.75 61.75zm0-118.2c-31.24 0-56.44 25.2-56.44 56.45 0 31.25 25.2 56.44 56.44 56.44 31.25 0 56.44-25.2 56.44-56.44 0-31.25-25.2-56.44-56.44-56.44z" stroke="#fff" stroke-opacity="0" fill="#d86613"/><use xlink:href="#C" transform="matrix(1,0,0,1,1965.3333444444447,810.7499958333333) translate(9.659259259259244 17.06666666666667)"/><use xlink:href="#D" transform="matrix(1,0,0,1,1965.3333444444447,810.7499958333333) translate(91.37777777777777 17.06666666666667)"/><use xlink:href="#E" transform="matrix(1,0,0,1,1965.3333444444447,810.7499958333333) translate(138.78518518518518 17.06666666666667)"/><use xlink:href="#F" transform="matrix(1,0,0,1,1965.3333444444447,810.7499958333333) translate(11.496296296296293 42.66666666666667)"/><use xlink:href="#G" transform="matrix(1,0,0,1,1965.3333444444447,810.7499958333333) translate(75.4962962962963 42.66666666666667)"/><path d="M1727.75 678.25h123.5v123.5h-123.5v-123.5z" stroke="#fff" stroke-opacity="0" stroke-width="2" fill="#693cc5"/><path d="M1830.72 731.76v3.3h-14.5c-38.03 0-67.84-15-67.84-34.16 0-.73 0-1.34.17-2.07h3.3c-.17.73-.17 1.34-.17 2.07 0 17.02 28.9 30.86 64.54 30.86z" stroke="#fff" stroke-opacity="0" stroke-width="2" fill="#fff"/><path d="M1830.72 738.36v3.27h-20.18c-32.2 0-55.34 5.24-62.17 14v-4.42c7.24-6.3 20.58-9.54 33.6-11.2-13.1-1.64-26.36-4.95-33.6-11.07v-4.82c6.67 8.8 29.4 14.1 61.1 14.25zM1830.72 725.17v3.3h-6.84c-33.02 0-57.04-11.22-57.04-26.63v-3.02h3.45v3.02c0 13.16 23.05 23.33 53.64 23.33z" stroke="#fff" stroke-opacity="0" stroke-width="2" fill="#fff"/><path d="M1830.72 744.94v3.3h-14.5c-35.67 0-64.6 13.9-64.6 30.9 0 .72 0 1.3.17 2.03h-3.3c-.17-.73-.17-1.3-.17-2.03 0-19.17 29.83-34.2 67.9-34.2z" stroke="#fff" stroke-opacity="0" stroke-width="2" fill="#fff"/><path d="M1830.72 751.53v3.3h-6.83c-30.62 0-53.64 9.86-53.64 23.16v3.17h-3.32V778c0-15.36 23.98-26.47 57.02-26.47z" stroke="#fff" stroke-opacity="0" stroke-width="2" fill="#fff"/><use xlink:href="#H" transform="matrix(1,0,0,1,1697.7500291666668,810.7499958333333) translate(19.9320987654321 17.77777777777778)"/><use xlink:href="#I" transform="matrix(1,0,0,1,1697.7500291666668,810.7499958333333) translate(120.85802469135803 17.77777777777778)"/><use xlink:href="#J" transform="matrix(1,0,0,1,1697.7500291666668,810.7499958333333) translate(58.111111111111114 44.44444444444444)"/><path d="M1460.17 678.25h123.5v123.5h-123.5v-123.5z" stroke="#fff" stroke-opacity="0" stroke-width="2" fill="#3f8624"/><path d="M1498.02 754.47h-.24c-9.38-.05-17.03-7.7-16.95-17.13 0-7.06 4.03-13.04 10.6-15.73.6-12.12 10.87-21.55 23.04-21 8.23.37 15.14 4.9 18.76 12.4 5.26-3.25 12-1.63 15.2 3.6 1 1.6 1.5 3.17 1.66 5 7.64 1.46 12.98 7.93 12.98 15.74 0 4.42-1.64 8.24-4.93 11.2l-2.22-2.36c2.55-2.32 3.86-5.28 3.86-8.8 0-6.6-4.94-12.1-11.52-12.7-.9-.05-1.57-.8-1.48-1.73v-.27-.32c0-4.3-3.54-7.8-7.82-7.8-2.05 0-3.86.7-5.34 2.14-.4.43-1 .6-1.57.43-.5-.1-.9-.48-1.06-1.02-2.8-7.53-9.62-12.22-17.68-12.22-10.36.05-18.75 8.46-18.67 18.8 0 .76-.5 1.35-1.15 1.62-5.76 1.9-9.38 6.95-9.46 13 0 7.58 6.1 13.78 13.74 13.83h.24z" stroke="#fff" stroke-opacity="0" stroke-width="2" fill="#fff"/><path d="M1547.24 745.88c-2-5.97-6.14-10.16-12.02-12.36-.3-3.4-2.97-6.07-6.4-6.4-3.83-.3-7.26 2.58-7.56 6.4-5.88 2.2-10.03 6.44-12.07 12.36-3.65.2-6.46 3.2-6.5 6.86-.06 3.82 3 7 6.84 7.06 2.1 5.2 5.68 8.9 10.8 11.15v8.43h3.27v-7.27c1.13.32 2.16.42 3.28.53v6.86h3.33v-6.98c1.18-.15 2.16-.3 3.28-.62v7.48h3.33v-8.7c4.86-2.24 8.24-5.85 10.24-10.88 3.63-.05 6.54-2.88 6.8-6.54.25-3.82-2.66-7.12-6.55-7.38zm-37.44 10.68c-2.05 0-3.68-1.68-3.68-3.72s1.63-3.72 3.68-3.72c2.05 0 3.68 1.68 3.68 3.72s-1.63 3.72-3.68 3.72zm10.5 10.73c-3.5-1.95-5.85-4.57-7.43-8.13 1.9-.94 3.22-2.46 3.73-4.5h3.7zm6.53 1.93c-1.12-.1-2.15-.27-3.27-.58v-15.6c0-.94-.72-1.68-1.64-1.68h-5.27c-.5-2.3-1.94-4.03-4.14-4.92 1.75-4.5 4.87-7.7 9.32-9.53.92 2.2 2.7 3.62 5 4.1zm1.43-31.42c-2.04 0-3.73-1.66-3.73-3.7 0-2.05 1.7-3.72 3.73-3.72 2.05 0 3.7 1.67 3.7 3.72 0 2.04-1.65 3.7-3.7 3.7zm6.86 13.63c-.87 0-1.64.73-1.64 1.62v15.44c-1.12.36-2.1.57-3.27.67V740.8c2.1-.58 3.64-1.94 4.5-3.93 4.46 1.83 7.58 5.03 9.32 9.53-2.2.9-3.63 2.67-4.15 4.92zm1.7 15.55V754.7h3.16c.56 2.05 1.84 3.56 3.78 4.45-1.53 3.4-3.78 5.92-7 7.8zm9.86-10.42c-2.05 0-3.74-1.68-3.74-3.72s1.7-3.72 3.74-3.72 3.68 1.68 3.68 3.72-1.64 3.66-3.68 3.72z" stroke="#fff" stroke-opacity="0" stroke-width="2" fill="#fff"/><use xlink:href="#K" transform="matrix(1,0,0,1,1430.1667138888888,810.7499958333333) translate(1.5679012345678984 17.77777777777778)"/><use xlink:href="#L" transform="matrix(1,0,0,1,1430.1667138888888,810.7499958333333) translate(39.34567901234568 17.77777777777778)"/><use xlink:href="#M" transform="matrix(1,0,0,1,1430.1667138888888,810.7499958333333) translate(92.37037037037037 17.77777777777778)"/><path d="M1584.67 740h124.58" stroke="#5e5e5e" stroke-width="2" fill="none"/><path d="M1584.7 740.98h-1.03V739h1.02z" stroke="#5e5e5e" stroke-width=".05" fill="#5e5e5e"/><path d="M1724.5 740l-14.25 4.63v-9.26z" stroke="#5e5e5e" stroke-width="2" fill="#5e5e5e"/><path d="M1852.25 740h124.58" stroke="#5e5e5e" stroke-width="2" fill="none"/><path d="M1852.28 740.98h-1.03V739h1.03z" stroke="#5e5e5e" stroke-width=".05" fill="#5e5e5e"/><path d="M1992.1 740l-14.27 4.63v-9.26z" stroke="#5e5e5e" stroke-width="2" fill="#5e5e5e"/><path d="M1727.75 438.42h123.5v123.5h-123.5v-123.5z" stroke="#fff" stroke-opacity="0" fill="#1c7b68"/><path d="M1799.8 541.76c-.33 0-.58-.08-.83-.25l-9.47-5.64-9.47 5.65c-.5.35-1.07.35-1.65 0l-19.36-11.8c-.5-.33-.74-.83-.74-1.42v-11.8l-9.14-5.17c-.5-.23-.82-.82-.82-1.4v-19.46c0-.6.33-1.17.82-1.42l9.06-5.16v-11.8c0-.6.25-1.17.83-1.42l19.35-11.8c.5-.35 1.07-.35 1.65 0l9.4 5.64 9.46-5.66c.48-.33 1.06-.33 1.64 0l19.44 11.82c.5.33.74.83.74 1.4v11.82l9.14 5.16c.5.25.82.83.82 1.42v19.46c0 .58-.33 1.17-.82 1.42l-9.06 5.15v11.8c0 .6-.33 1.18-.82 1.43l-19.36 11.8c-.25.18-.5.26-.82.26zm-8.65-8.73l8.65 5.15 17.7-10.8v-11.9c0-.6.33-1.1.83-1.42l7.33-4.16-6.18-3.33c-1.97 1.67-4.94 1.42-6.67-.5-1.64-2-1.47-5 .5-6.73 2.06-1.67 5.03-1.42 6.68.5.82.9 1.15 1.9 1.15 3.16v.66l6.34 3.5v-15.8l-9.14-5.08c-.58-.34-.82-.84-.82-1.42v-4.5h-4.6c-.9 2.5-3.63 3.75-6.1 2.84-2.4-.92-3.7-3.66-2.8-6.07.98-2.5 3.7-3.75 6.1-2.83 1.4.5 2.3 1.5 2.8 2.83h4.6v-4.16l-17.7-10.82-8.65 5.16v18.14l9.14 5.25c2.05-1.5 5-1.1 6.58.98 1.56 2.08 1.15 5-.9 6.57-2.07 1.6-5.03 1.17-6.6-.9-.66-.93-.98-1.84-.98-2.84 0-.4.08-.65.16-1l-9.88-5.64c-.5-.34-.83-.84-.83-1.5V467.3l-8.65-5.15-7.82 4.74v11.64h-3.3v-9.65l-6.6 4.07v10.98l8.25 4.66 8.24-4.65v-8.5h3.3v9.4c0 .6-.34 1.1-.83 1.43l-9.06 5.07v7.9l9.06 5.9c.5.34.74.84.74 1.42v5.5l6.6-3.92v-6.98l-8.66-5.16 1.65-2.82 9.55 5.66c.5.33.83.83.83 1.4v21.4h7.5c.9-2.42 3.62-3.67 6.1-2.75 1.88.65 3.04 2.4 3.04 4.4-.18 2.66-2.5 4.65-5.04 4.5-1.9-.18-3.38-1.18-4.12-2.84h-7.58zm-18.78.9l6.83 4.17 8.65-5.16v-20.96l-18.37 10.9-1.64-2.9 10.13-6v-6.58l-8.24-5.4-9.22 5.24-1.64-2.9 9.3-5.17v-7.82l-8.23-4.66-8.24 4.65v6.07l7-4.16 1.64 2.83-8.73 5.07v7.73l8.25 4.66 8.32-4.9 1.64 2.82-8.3 4.9v11l7.4 4.57 8.57-5.08.17.17.33-.25 1.65 2.82zm30.72-12.22c-.75 0-1.4.68-1.4 1.43 0 .83.65 1.5 1.4 1.5.8 0 1.47-.67 1.47-1.5-.08-.75-.66-1.33-1.48-1.33zm13.33-20.2c-.82 0-1.48.58-1.48 1.4 0 .76.66 1.43 1.48 1.43.74 0 1.4-.67 1.4-1.42 0-.73-.65-1.4-1.4-1.4zm-13.34-8.5c-.75 0-1.4.6-1.4 1.43 0 .75.65 1.4 1.4 1.4.8 0 1.47-.65 1.47-1.4-.08-.75-.66-1.42-1.48-1.42zm5.34-15.7c-.82 0-1.4.66-1.4 1.5 0 .74.58 1.4 1.4 1.4.83 0 1.4-.66 1.4-1.4v-.1c0-.74-.65-1.4-1.4-1.4z" stroke="#fff" stroke-opacity="0" fill="#fff"/><use xlink:href="#N" transform="matrix(1,0,0,1,1697.7500291666668,570.9166624999999) translate(48.85185185185185 17.77777777777778)"/><use xlink:href="#O" transform="matrix(1,0,0,1,1697.7500291666668,570.9166624999999) translate(27.06172839506172 44.44444444444444)"/><use xlink:href="#P" transform="matrix(1,0,0,1,1697.7500291666668,570.9166624999999) translate(126.93827160493827 44.44444444444444)"/><use xlink:href="#Q" transform="matrix(1,0,0,1,1697.7500291666668,570.9166624999999) translate(61.81481481481482 71.11111111111111)"/><path d="M1852.25 500.17h198.83a6 6 0 0 1 6 6v153.58" stroke="#5e5e5e" stroke-width="2" fill="none"/><path d="M1852.28 501.14h-1.03v-1.95h1.03z" stroke="#5e5e5e" stroke-width=".05" fill="#5e5e5e"/><path d="M2057.08 675l-4.63-14.25h9.27z" stroke="#5e5e5e" stroke-width="2" fill="#5e5e5e"/><path d="M1635.13 383.5a6 6 0 0 1 6-6h296.74a6 6 0 0 1 6 6v48a6 6 0 0 1-6 6h-296.74a6 6 0 0 1-6-6z" fill="none"/><g><use xlink:href="#R" transform="matrix(1,0,0,1,1635.1250354166666,377.5) translate(13.981481481481467 36.22222222222222)"/><use xlink:href="#S" transform="matrix(1,0,0,1,1635.1250354166666,377.5) translate(153.7222222222222 36.22222222222222)"/></g><path d="M1419 966a6 6 0 0 1 6-6h729a6 6 0 0 1 6 6v328a6 6 0 0 1-6 6h-729a6 6 0 0 1-6-6z" fill="#fff"/><path d="M1445.42 960h2.04m10.2 0h20.43m10.2 0h2.05m10.2 0h20.42m10.2 0h2.06m10.2 0h20.43m10.2 0h2.05m10.22 0h20.42m10.2 0h2.05m10.2 0h20.42m10.2 0h2.05m10.2 0h20.43m10.2 0h2.06m10.2 0h20.43m10.2 0h2.04m10.2 0h20.43m10.2 0h2.05m10.2 0h20.43m10.2 0h2.05m10.2 0h20.43m10.2 0h2.06m10.2 0h20.42m10.2 0h2.05m10.2 0h20.43m10.2 0h2.05m10.2 0h20.43m10.2 0h2.05m10.2 0h20.43m10.2 0h2.06m10.2 0h20.43m10.2 0h2.05m10.2 0h20.43m10.2 0h2.05m10.2 0H2154l.94.07.9.22.88.35.8.5.72.6.6.72.5.8.37.88.23.9.07.95v9.76m0 9.76v1.96m0 9.76v19.52m0 9.76v1.96m0 9.76v19.52m0 9.76v1.96m0 9.76v19.52m0 9.76v1.96m0 9.76v19.52m0 9.76v1.96m0 9.76v19.52m0 9.76v1.96m0 9.76v19.52m0 9.76v1.96m0 9.76v19.52m0 9.76v1.96m0 9.76v9.76l-.07.94-.22.9-.35.88-.5.8-.6.72-.72.6-.8.5-.88.37-.9.23-.95.07h-10.2m-10.22 0h-2.04m-10.2 0h-20.43m-10.2 0h-2.04m-10.2 0h-20.43m-10.22 0h-2.03m-10.2 0h-20.43m-10.2 0h-2.05m-10.22 0h-20.42m-10.2 0H1960m-10.2 0h-20.42m-10.2 0h-2.05m-10.2 0h-20.43m-10.2 0h-2.06m-10.2 0h-20.43m-10.2 0h-2.04m-10.2 0h-20.43m-10.2 0h-2.05m-10.2 0h-20.43m-10.2 0h-2.05m-10.2 0h-20.43m-10.2 0h-2.06m-10.2 0h-20.42m-10.2 0h-2.05m-10.2 0h-20.43m-10.2 0h-2.05m-10.2 0h-20.43m-10.2 0h-2.05m-10.2 0h-20.43m-10.2 0h-2.06m-10.2 0h-20.42m-10.2 0h-2.06m-10.2 0h-20.43m-10.2 0h-2.05m-10.2 0H1425l-.94-.07-.9-.22-.88-.35-.8-.5-.72-.6-.6-.72-.5-.8-.37-.88-.23-.9-.07-.95v-9.76m0-9.76v-1.96m0-9.76v-19.52m0-9.76v-1.96m0-9.76v-19.52m0-9.76v-1.96m0-9.76v-19.52m0-9.76v-1.96m0-9.76v-19.52m0-9.76v-1.96m0-9.76v-19.52m0-9.76v-1.96m0-9.76v-19.52m0-9.76v-1.96m0-9.76v-19.52m0-9.76v-1.96m0-9.76V966l.07-.94.22-.9.35-.88.5-.8.6-.72.72-.6.8-.5.88-.37.9-.23.95-.07h10.2" stroke="#3a414a" stroke-width="2" fill="none"/><path d="M1731.25 1040h120v120h-120v-120z" stroke="#000" stroke-opacity="0" fill="#7aa116"/><path d="M1822.5 1104.37l.55-4.12c5.33 3.2 5.4 4.54 5.4 4.54s-.96.74-5.96-.43zm-2.92-.84c-9.2-2.77-21.97-8.65-27.14-11.1v-.07c0-1.94-1.6-3.62-3.63-3.62-2 0-3.63 1.68-3.63 3.62 0 2 1.62 3.6 3.64 3.6.9 0 1.7-.33 2.27-.83 6.14 2.85 18.82 8.65 28.1 11.42l-3.7 25.8v.24c0 2.26-10.1 6.38-26.5 6.38-16.64 0-26.8-4.12-26.8-6.4v-.24l-7.68-55.78c6.6 4.54 20.82 6.98 34.47 6.98 13.57 0 27.78-2.44 34.4-6.98l-3.8 26.97zm-65.9-32.85c.16-1.93 11.47-9.66 35.3-9.66 23.8 0 35.12 7.73 35.28 9.66v.68c-1.37 4.45-16.07 9.15-35.3 9.15-19.3 0-34-4.7-35.28-9.14v-.68zm73.57.1c0-5.22-14.94-12.78-38.28-12.78-23.34 0-38.28 7.56-38.28 12.77l.15 1.1 8.32 60.8c.16 6.8 18.33 9.33 29.8 9.33 14.2 0 29.32-3.28 29.48-9.32l3.63-25.37c2.02.5 3.64.76 4.93.76 1.8 0 3-.42 3.72-1.34.65-.67.8-1.5.65-2.44-.32-2.1-2.83-4.36-7.83-7.22l3.55-25.12.15-1.17z" stroke="#000" stroke-opacity="0" fill="#fff"/><g><use xlink:href="#T" transform="matrix(1,0,0,1,1701.2500208333336,1169) translate(42.05925925925926 17.06666666666667)"/><use xlink:href="#U" transform="matrix(1,0,0,1,1701.2500208333336,1169) translate(90.53333333333333 17.06666666666667)"/><use xlink:href="#V" transform="matrix(1,0,0,1,1701.2500208333336,1169) translate(14.177777777777777 42.66666666666667)"/><use xlink:href="#U" transform="matrix(1,0,0,1,1701.2500208333336,1169) translate(118.41481481481482 42.66666666666667)"/><use xlink:href="#W" transform="matrix(1,0,0,1,1701.2500208333336,1169) translate(8.933333333333337 68.26666666666668)"/><use xlink:href="#X" transform="matrix(1,0,0,1,1701.2500208333336,1169) translate(102.44444444444446 68.26666666666668)"/><use xlink:href="#Y" transform="matrix(1,0,0,1,1701.2500208333336,1169) translate(20.192592592592575 93.86666666666667)"/><use xlink:href="#Z" transform="matrix(1,0,0,1,1701.2500208333336,1169) translate(91.18518518518518 93.86666666666667)"/></g><path d="M1643.88 985a6 6 0 0 1 6-6h288a6 6 0 0 1 6 6v48a6 6 0 0 1-6 6h-288a6 6 0 0 1-6-6z" fill="none"/><g><use xlink:href="#aa" transform="matrix(1,0,0,1,1643.8750145833335,979) translate(87.14814814814814 35.333333333333336)"/><use xlink:href="#ab" transform="matrix(1,0,0,1,1643.8750145833335,979) translate(152.18518518518516 35.333333333333336)"/></g><path d="M2365 740h170v170h-170V740z" stroke="#fff" stroke-opacity="0" stroke-width="2" fill="#693cc5"/><path d="M2503.5 863.33l-10.3-10.43c6.23-9.3 9.06-18.93 9.06-30.15 0-30.04-24.26-54.42-54.3-54.42-21.42.12-39.66 11.57-48.96 30.95l4.08 1.93c11.9-24.82 41.7-35.25 66.54-23.35 17.68 8.5 28.22 25.17 28.22 44.9.1 9.97-2.38 18.47-7.82 26.86l-8.62-8.6c.57-1.14 1.02-2.16 1.48-3.4 7.25-19.28-2.6-40.8-21.88-48.07-19.38-7.25-40.92 2.5-48.17 21.88h-14.96v4.54h13.7c-.55 2.38-.78 4.42-.78 6.8h-17.47v4.54h17.57c.23 2.38.57 4.42 1.25 6.8h-14.06v4.54h15.64c.56 1.24 1.13 2.26 1.8 3.5 9.98 18.03 32.77 24.38 50.8 14.4l8.26 8.28c-22.9 14.5-53.16 8.05-68.23-14.5l-3.74 2.5c16.66 24.92 50.2 31.73 75.26 15.3l10.42 10.42c4.2 4.2 11 4.2 15.2 0 4.18-4.2 4.18-11 0-15.2zm-55.42-6.7c-18.13 0-32.87-14.6-32.87-32.75 0-18.14 14.75-32.88 32.88-32.88 18.14 0 32.87 14.74 32.87 32.88s-14.73 32.76-32.87 32.76zm52.14 18.7c-2.5 2.28-6.35 2.28-8.73 0l-21.32-21.4c3.52-2.62 6.12-5.34 8.62-9.08l21.42 21.54c2.5 2.48 2.5 6.34.1 8.72-.1 0-.1 0-.1.1z" stroke="#fff" stroke-opacity="0" stroke-width="2" fill="#fff"/><path d="M2469 827.15c-1-2.12-2.36-3.73-4.27-5.08l1.5-11.04v-.6-.33c0-5.37-11.85-7.36-19.3-7.36-7.46 0-19.27 2-19.27 7.36v.94l3.8 28.2c.3 5.63 13.85 5.8 15.42 5.8 3.1 0 5.72-.26 8.74-.9 1-.24 1.87-.5 2.82-.88 2.48-.97 3.77-2.24 3.85-4.02l1.15-8.8c.8.17 1.5.26 2.28.26 1.2.17 2.32-.38 2.9-1.4.45-.67.58-1.4.37-2.15zm-9.2-2.58c-2.9-1.15-6.4-2.67-9.77-4.28-.46-1.32-1.62-2.2-3.02-2.2-1.82 0-3.27 1.43-3.27 3.25 0 1.78 1.45 3.22 3.24 3.26.37 0 .7-.08 1.07-.2 3.8 1.9 7.13 3.34 11.14 4.78l-1.24 9.34c-.33.22-.66.38-1.03.55-.78.26-1.44.47-2.27.64-2.65.6-4.97.8-7.7.8-3.94.22-7.34-.37-10.94-1.98l-3.2-23.6c9.7 2.63 18.55 2.63 28.25 0zm-12.84-12.27c-5.13.25-9.48-.46-14.28-2.28 4.72-2.16 9.1-3 14.3-2.8 5.12-.2 9.55.64 14.27 2.8-4.8 1.82-9.2 2.53-14.28 2.28z" stroke="#fff" stroke-opacity="0" stroke-width="2" fill="#fff"/><g><use xlink:href="#ac" transform="matrix(1,0,0,1,2335,919) translate(36.01851851851852 17.77777777777778)"/><use xlink:href="#ad" transform="matrix(1,0,0,1,2335,919) translate(123.61111111111111 17.77777777777778)"/></g><path d="M2162 1130h47.86a.4.4 0 0 0 .4-.4.4.4 0 0 1 .38-.38H2241" stroke="#5e5e5e" stroke-width="2" fill="none"/><path d="M2162.03 1130.97H2161v-1.94h1.03z" stroke="#5e5e5e" stroke-width=".05" fill="#5e5e5e"/><path d="M2256.26 1129.2l-14.26 4.65v-9.27z" stroke="#5e5e5e" stroke-width="2" fill="#5e5e5e"/><path d="M2162 620h47.97a.28.28 0 0 1 .28.27.28.28 0 0 0 .28.28H2241" stroke="#5e5e5e" stroke-width="2" fill="none"/><path d="M2162.03 620.98H2161V619h1.03z" stroke="#5e5e5e" stroke-width=".05" fill="#5e5e5e"/><path d="M2256.26 620.55l-14.26 4.63v-9.27z" stroke="#5e5e5e" stroke-width="2" fill="#5e5e5e"/><path d="M1302 450h32a6 6 0 0 1 6 6v278a6 6 0 0 0 6 6h95.66" stroke="#5e5e5e" stroke-width="2" fill="none"/><path d="M1302.03 450.98H1301v-1.96h1.03z" stroke="#5e5e5e" stroke-width=".05" fill="#5e5e5e"/><path d="M1456.93 740l-14.27 4.63v-9.26z" stroke="#5e5e5e" stroke-width="2" fill="#5e5e5e"/><path d="M2325.8 386a6 6 0 0 1 6-6h238.9a6 6 0 0 1 6 6v62a6 6 0 0 1-6 6h-238.9a6 6 0 0 1-6-6z" fill="#fff" fill-opacity="0"/><g><use xlink:href="#ae" transform="matrix(1,0,0,1,2330.8055555555557,385) translate(8.32716049382715 24.888888888888893)"/><use xlink:href="#af" transform="matrix(1,0,0,1,2330.8055555555557,385) translate(86.01851851851852 24.888888888888893)"/></g><defs><path d="M199 0l-22-63H83L61 0H9l90-248h61L250 0h-51zm-33-102l-36-108c-10 38-24 72-36 108h72" id="ag"/><path d="M275 0h-61l-44-196L126 0H64L0-248h53L97-49l45-199h58l43 199 44-199h52" id="ah"/><path d="M169-182c-1-43-94-46-97-3 18 66 151 10 154 114 3 95-165 93-204 36-6-8-10-19-12-30l50-8c3 46 112 56 116 5-17-69-150-10-154-114-4-87 153-88 188-35 5 8 8 18 10 28" id="ai"/><g id="a"><use transform="matrix(0.08641975308641976,0,0,0.08641975308641976,0,0)" xlink:href="#ag"/><use transform="matrix(0.08641975308641976,0,0,0.08641975308641976,20.654320987654323,0)" xlink:href="#ah"/><use transform="matrix(0.08641975308641976,0,0,0.08641975308641976,49.95061728395062,0)" xlink:href="#ai"/></g><path d="M67-125c0 53 21 87 73 88 37 1 54-22 65-47l45 17C233-25 199 4 140 4 58 4 20-42 15-125 8-235 124-281 211-232c18 10 29 29 36 50l-46 12c-8-25-30-41-62-41-52 0-71 34-72 86" id="aj"/><path d="M25 0v-261h50V0H25" id="ak"/><path d="M110-194c64 0 96 36 96 99 0 64-35 99-97 99-61 0-95-36-95-99 0-62 34-99 96-99zm-1 164c35 0 45-28 45-65 0-40-10-65-43-65-34 0-45 26-45 65 0 36 10 65 43 65" id="al"/><path d="M85 4C-2 5 27-109 22-190h50c7 57-23 150 33 157 60-5 35-97 40-157h50l1 190h-47c-2-12 1-28-3-38-12 25-28 42-61 42" id="am"/><path d="M88-194c31-1 46 15 58 34l-1-101h50l1 261h-48c-2-10 0-23-3-31C134-8 116 4 84 4 32 4 16-41 15-95c0-56 19-97 73-99zm17 164c33 0 40-30 41-66 1-37-9-64-41-64s-38 30-39 65c0 43 13 65 39 65" id="an"/><g id="b"><use transform="matrix(0.08641975308641976,0,0,0.08641975308641976,0,0)" xlink:href="#aj"/><use transform="matrix(0.08641975308641976,0,0,0.08641975308641976,22.38271604938272,0)" xlink:href="#ak"/><use transform="matrix(0.08641975308641976,0,0,0.08641975308641976,31.024691358024693,0)" xlink:href="#al"/><use transform="matrix(0.08641975308641976,0,0,0.08641975308641976,49.95061728395062,0)" xlink:href="#am"/><use transform="matrix(0.08641975308641976,0,0,0.08641975308641976,68.87654320987654,0)" xlink:href="#an"/></g><path d="M33 0v-248h34V0H33" id="ao"/><path d="M117-194c89-4 53 116 60 194h-32v-121c0-31-8-49-39-48C34-167 62-67 57 0H25l-1-190h30c1 10-1 24 2 32 11-22 29-35 61-36" id="ap"/><path d="M59-47c-2 24 18 29 38 22v24C64 9 27 4 27-40v-127H5v-23h24l9-43h21v43h35v23H59v120" id="aq"/><path d="M100-194c63 0 86 42 84 106H49c0 40 14 67 53 68 26 1 43-12 49-29l28 8c-11 28-37 45-77 45C44 4 14-33 15-96c1-61 26-98 85-98zm52 81c6-60-76-77-97-28-3 7-6 17-6 28h103" id="ar"/><path d="M114-163C36-179 61-72 57 0H25l-1-190h30c1 12-1 29 2 39 6-27 23-49 58-41v29" id="as"/><path d="M141-36C126-15 110 5 73 4 37 3 15-17 15-53c-1-64 63-63 125-63 3-35-9-54-41-54-24 1-41 7-42 31l-33-3c5-37 33-52 76-52 45 0 72 20 72 64v82c-1 20 7 32 28 27v20c-31 9-61-2-59-35zM48-53c0 20 12 33 32 33 41-3 63-29 60-74-43 2-92-5-92 41" id="at"/><path d="M96-169c-40 0-48 33-48 73s9 75 48 75c24 0 41-14 43-38l32 2c-6 37-31 61-74 61-59 0-76-41-82-99-10-93 101-131 147-64 4 7 5 14 7 22l-32 3c-4-21-16-35-41-35" id="au"/><path d="M24-231v-30h32v30H24zM24 0v-190h32V0H24" id="av"/><path d="M108 0H70L1-190h34L89-25l56-165h34" id="aw"/><g id="c"><use transform="matrix(0.06172839506172839,0,0,0.06172839506172839,0,0)" xlink:href="#ao"/><use transform="matrix(0.06172839506172839,0,0,0.06172839506172839,6.172839506172839,0)" xlink:href="#ap"/><use transform="matrix(0.06172839506172839,0,0,0.06172839506172839,18.51851851851852,0)" xlink:href="#aq"/><use transform="matrix(0.06172839506172839,0,0,0.06172839506172839,24.691358024691358,0)" xlink:href="#ar"/><use transform="matrix(0.06172839506172839,0,0,0.06172839506172839,37.03703703703704,0)" xlink:href="#as"/><use transform="matrix(0.06172839506172839,0,0,0.06172839506172839,44.382716049382715,0)" xlink:href="#at"/><use transform="matrix(0.06172839506172839,0,0,0.06172839506172839,56.72839506172839,0)" xlink:href="#au"/><use transform="matrix(0.06172839506172839,0,0,0.06172839506172839,67.8395061728395,0)" xlink:href="#aq"/><use transform="matrix(0.06172839506172839,0,0,0.06172839506172839,74.01234567901234,0)" xlink:href="#av"/><use transform="matrix(0.06172839506172839,0,0,0.06172839506172839,78.88888888888889,0)" xlink:href="#aw"/><use transform="matrix(0.06172839506172839,0,0,0.06172839506172839,90,0)" xlink:href="#ar"/></g><path d="M30-248c118-7 216 8 213 122C240-48 200 0 122 0H30v-248zM63-27c89 8 146-16 146-99s-60-101-146-95v194" id="ax"/><path d="M135-143c-3-34-86-38-87 0 15 53 115 12 119 90S17 21 10-45l28-5c4 36 97 45 98 0-10-56-113-15-118-90-4-57 82-63 122-42 12 7 21 19 24 35" id="ay"/><path d="M106-169C34-169 62-67 57 0H25v-261h32l-1 103c12-21 28-36 61-36 89 0 53 116 60 194h-32v-121c2-32-8-49-39-48" id="az"/><path d="M115-194c53 0 69 39 70 98 0 66-23 100-70 100C84 3 66-7 56-30L54 0H23l1-261h32v101c10-23 28-34 59-34zm-8 174c40 0 45-34 45-75 0-40-5-75-45-74-42 0-51 32-51 76 0 43 10 73 51 73" id="aA"/><path d="M100-194c62-1 85 37 85 99 1 63-27 99-86 99S16-35 15-95c0-66 28-99 85-99zM99-20c44 1 53-31 53-75 0-43-8-75-51-75s-53 32-53 75 10 74 51 75" id="aB"/><path d="M85-194c31 0 48 13 60 33l-1-100h32l1 261h-30c-2-10 0-23-3-31C134-8 116 4 85 4 32 4 16-35 15-94c0-66 23-100 70-100zm9 24c-40 0-46 34-46 75 0 40 6 74 45 74 42 0 51-32 51-76 0-42-9-74-50-73" id="aC"/><g id="d"><use transform="matrix(0.06172839506172839,0,0,0.06172839506172839,0,0)" xlink:href="#ax"/><use transform="matrix(0.06172839506172839,0,0,0.06172839506172839,15.987654320987653,0)" xlink:href="#at"/><use transform="matrix(0.06172839506172839,0,0,0.06172839506172839,28.333333333333332,0)" xlink:href="#ay"/><use transform="matrix(0.06172839506172839,0,0,0.06172839506172839,39.44444444444444,0)" xlink:href="#az"/><use transform="matrix(0.06172839506172839,0,0,0.06172839506172839,51.79012345679012,0)" xlink:href="#aA"/><use transform="matrix(0.06172839506172839,0,0,0.06172839506172839,64.1358024691358,0)" xlink:href="#aB"/><use transform="matrix(0.06172839506172839,0,0,0.06172839506172839,76.48148148148148,0)" xlink:href="#at"/><use transform="matrix(0.06172839506172839,0,0,0.06172839506172839,88.82716049382717,0)" xlink:href="#as"/><use transform="matrix(0.06172839506172839,0,0,0.06172839506172839,96.17283950617285,0)" xlink:href="#aC"/><use transform="matrix(0.06172839506172839,0,0,0.06172839506172839,108.51851851851853,0)" xlink:href="#ay"/></g><path d="M206 0h-36l-40-164L89 0H53L-1-190h32L70-26l43-164h34l41 164 42-164h31" id="aD"/><g id="e"><use transform="matrix(0.06172839506172839,0,0,0.06172839506172839,0,0)" xlink:href="#aD"/><use transform="matrix(0.06172839506172839,0,0,0.06172839506172839,15.987654320987653,0)" xlink:href="#av"/><use transform="matrix(0.06172839506172839,0,0,0.06172839506172839,20.864197530864196,0)" xlink:href="#aq"/><use transform="matrix(0.06172839506172839,0,0,0.06172839506172839,27.037037037037035,0)" xlink:href="#az"/></g><path d="M240 0l2-218c-23 76-54 145-80 218h-23L58-218 59 0H30v-248h44l77 211c21-75 51-140 76-211h43V0h-30" id="aE"/><path d="M177-190C167-65 218 103 67 71c-23-6-38-20-44-43l32-5c15 47 100 32 89-28v-30C133-14 115 1 83 1 29 1 15-40 15-95c0-56 16-97 71-98 29-1 48 16 59 35 1-10 0-23 2-32h30zM94-22c36 0 50-32 50-73 0-42-14-75-50-75-39 0-46 34-46 75s6 73 46 73" id="aF"/><g id="f"><use transform="matrix(0.06172839506172839,0,0,0.06172839506172839,0,0)" xlink:href="#aE"/><use transform="matrix(0.06172839506172839,0,0,0.06172839506172839,18.456790123456788,0)" xlink:href="#aB"/><use transform="matrix(0.06172839506172839,0,0,0.06172839506172839,30.80246913580247,0)" xlink:href="#ap"/><use transform="matrix(0.06172839506172839,0,0,0.06172839506172839,43.148148148148145,0)" xlink:href="#av"/><use transform="matrix(0.06172839506172839,0,0,0.06172839506172839,48.02469135802469,0)" xlink:href="#aq"/><use transform="matrix(0.06172839506172839,0,0,0.06172839506172839,54.19753086419753,0)" xlink:href="#aB"/><use transform="matrix(0.06172839506172839,0,0,0.06172839506172839,66.54320987654322,0)" xlink:href="#as"/><use transform="matrix(0.06172839506172839,0,0,0.06172839506172839,73.8888888888889,0)" xlink:href="#av"/><use transform="matrix(0.06172839506172839,0,0,0.06172839506172839,78.76543209876544,0)" xlink:href="#ap"/><use transform="matrix(0.06172839506172839,0,0,0.06172839506172839,91.11111111111113,0)" xlink:href="#aF"/></g><path d="M185-189c-5-48-123-54-124 2 14 75 158 14 163 119 3 78-121 87-175 55-17-10-28-26-33-46l33-7c5 56 141 63 141-1 0-78-155-14-162-118-5-82 145-84 179-34 5 7 8 16 11 25" id="aG"/><g id="g"><use transform="matrix(0.06172839506172839,0,0,0.06172839506172839,0,0)" xlink:href="#aG"/><use transform="matrix(0.06172839506172839,0,0,0.06172839506172839,14.814814814814813,0)" xlink:href="#aq"/><use transform="matrix(0.06172839506172839,0,0,0.06172839506172839,20.98765432098765,0)" xlink:href="#at"/><use transform="matrix(0.06172839506172839,0,0,0.06172839506172839,33.33333333333333,0)" xlink:href="#aq"/><use transform="matrix(0.06172839506172839,0,0,0.06172839506172839,39.50617283950617,0)" xlink:href="#av"/><use transform="matrix(0.06172839506172839,0,0,0.06172839506172839,44.382716049382715,0)" xlink:href="#ay"/><use transform="matrix(0.06172839506172839,0,0,0.06172839506172839,55.49382716049382,0)" xlink:href="#aq"/><use transform="matrix(0.06172839506172839,0,0,0.06172839506172839,61.666666666666664,0)" xlink:href="#av"/><use transform="matrix(0.06172839506172839,0,0,0.06172839506172839,66.5432098765432,0)" xlink:href="#au"/><use transform="matrix(0.06172839506172839,0,0,0.06172839506172839,77.65432098765432,0)" xlink:href="#ay"/></g><g id="h"><use transform="matrix(0.06172839506172839,0,0,0.06172839506172839,0,0)" xlink:href="#at"/><use transform="matrix(0.06172839506172839,0,0,0.06172839506172839,12.345679012345679,0)" xlink:href="#ap"/><use transform="matrix(0.06172839506172839,0,0,0.06172839506172839,24.691358024691358,0)" xlink:href="#aC"/></g><path d="M205 0l-28-72H64L36 0H1l101-248h38L239 0h-34zm-38-99l-47-123c-12 45-31 82-46 123h93" id="aH"/><g id="i"><use transform="matrix(0.06172839506172839,0,0,0.06172839506172839,0,0)" xlink:href="#aH"/><use transform="matrix(0.06172839506172839,0,0,0.06172839506172839,14.814814814814813,0)" xlink:href="#au"/><use transform="matrix(0.06172839506172839,0,0,0.06172839506172839,25.925925925925924,0)" xlink:href="#aq"/><use transform="matrix(0.06172839506172839,0,0,0.06172839506172839,32.098765432098766,0)" xlink:href="#av"/><use transform="matrix(0.06172839506172839,0,0,0.06172839506172839,36.97530864197531,0)" xlink:href="#aB"/><use transform="matrix(0.06172839506172839,0,0,0.06172839506172839,49.32098765432099,0)" xlink:href="#ap"/><use transform="matrix(0.06172839506172839,0,0,0.06172839506172839,61.666666666666664,0)" xlink:href="#ay"/></g><path d="M233-177c-1 41-23 64-60 70L243 0h-38l-65-103H63V0H30v-248c88 3 205-21 203 71zM63-129c60-2 137 13 137-47 0-61-80-42-137-45v92" id="aI"/><path d="M210-169c-67 3-38 105-44 169h-31v-121c0-29-5-50-35-48C34-165 62-65 56 0H25l-1-190h30c1 10-1 24 2 32 10-44 99-50 107 0 11-21 27-35 58-36 85-2 47 119 55 194h-31v-121c0-29-5-49-35-48" id="aJ"/><g id="j"><use transform="matrix(0.06172839506172839,0,0,0.06172839506172839,0,0)" xlink:href="#aI"/><use transform="matrix(0.06172839506172839,0,0,0.06172839506172839,15.987654320987653,0)" xlink:href="#ar"/><use transform="matrix(0.06172839506172839,0,0,0.06172839506172839,28.333333333333332,0)" xlink:href="#au"/><use transform="matrix(0.06172839506172839,0,0,0.06172839506172839,39.44444444444444,0)" xlink:href="#aB"/><use transform="matrix(0.06172839506172839,0,0,0.06172839506172839,51.79012345679012,0)" xlink:href="#aJ"/><use transform="matrix(0.06172839506172839,0,0,0.06172839506172839,70.24691358024691,0)" xlink:href="#aJ"/><use transform="matrix(0.06172839506172839,0,0,0.06172839506172839,88.7037037037037,0)" xlink:href="#ar"/><use transform="matrix(0.06172839506172839,0,0,0.06172839506172839,101.04938271604938,0)" xlink:href="#ap"/><use transform="matrix(0.06172839506172839,0,0,0.06172839506172839,113.39506172839506,0)" xlink:href="#aC"/><use transform="matrix(0.06172839506172839,0,0,0.06172839506172839,125.74074074074075,0)" xlink:href="#at"/><use transform="matrix(0.06172839506172839,0,0,0.06172839506172839,138.08641975308643,0)" xlink:href="#aq"/><use transform="matrix(0.06172839506172839,0,0,0.06172839506172839,144.25925925925927,0)" xlink:href="#av"/><use transform="matrix(0.06172839506172839,0,0,0.06172839506172839,149.1358024691358,0)" xlink:href="#aB"/><use transform="matrix(0.06172839506172839,0,0,0.06172839506172839,161.48148148148147,0)" xlink:href="#ap"/><use transform="matrix(0.06172839506172839,0,0,0.06172839506172839,173.82716049382714,0)" xlink:href="#ay"/></g><path d="M266 0h-40l-56-210L115 0H75L2-248h35L96-30l15-64 43-154h32l59 218 59-218h35" id="aK"/><g id="k"><use transform="matrix(0.06172839506172839,0,0,0.06172839506172839,0,0)" xlink:href="#aK"/><use transform="matrix(0.06172839506172839,0,0,0.06172839506172839,20.493827160493826,0)" xlink:href="#ar"/><use transform="matrix(0.06172839506172839,0,0,0.06172839506172839,32.839506172839506,0)" xlink:href="#av"/><use transform="matrix(0.06172839506172839,0,0,0.06172839506172839,37.71604938271605,0)" xlink:href="#aF"/><use transform="matrix(0.06172839506172839,0,0,0.06172839506172839,50.06172839506173,0)" xlink:href="#az"/><use transform="matrix(0.06172839506172839,0,0,0.06172839506172839,62.407407407407405,0)" xlink:href="#av"/><use transform="matrix(0.06172839506172839,0,0,0.06172839506172839,67.28395061728395,0)" xlink:href="#ap"/><use transform="matrix(0.06172839506172839,0,0,0.06172839506172839,79.62962962962963,0)" xlink:href="#aF"/></g><g id="l"><use transform="matrix(0.06172839506172839,0,0,0.06172839506172839,0,0)" xlink:href="#aJ"/><use transform="matrix(0.06172839506172839,0,0,0.06172839506172839,18.456790123456788,0)" xlink:href="#at"/><use transform="matrix(0.06172839506172839,0,0,0.06172839506172839,30.80246913580247,0)" xlink:href="#au"/><use transform="matrix(0.06172839506172839,0,0,0.06172839506172839,41.91358024691358,0)" xlink:href="#az"/><use transform="matrix(0.06172839506172839,0,0,0.06172839506172839,54.25925925925926,0)" xlink:href="#av"/><use transform="matrix(0.06172839506172839,0,0,0.06172839506172839,59.135802469135804,0)" xlink:href="#ap"/><use transform="matrix(0.06172839506172839,0,0,0.06172839506172839,71.48148148148148,0)" xlink:href="#ar"/><use transform="matrix(0.06172839506172839,0,0,0.06172839506172839,83.82716049382717,0)" xlink:href="#ay"/></g><path d="M212-179c-10-28-35-45-73-45-59 0-87 40-87 99 0 60 29 101 89 101 43 0 62-24 78-52l27 14C228-24 195 4 139 4 59 4 22-46 18-125c-6-104 99-153 187-111 19 9 31 26 39 46" id="aL"/><path d="M143 0L79-87 56-68V0H24v-261h32v163l83-92h37l-77 82L181 0h-38" id="aM"/><g id="m"><use transform="matrix(0.06172839506172839,0,0,0.06172839506172839,0,0)" xlink:href="#aL"/><use transform="matrix(0.06172839506172839,0,0,0.06172839506172839,15.987654320987653,0)" xlink:href="#aB"/><use transform="matrix(0.06172839506172839,0,0,0.06172839506172839,28.333333333333332,0)" xlink:href="#aB"/><use transform="matrix(0.06172839506172839,0,0,0.06172839506172839,40.67901234567901,0)" xlink:href="#aM"/><use transform="matrix(0.06172839506172839,0,0,0.06172839506172839,51.79012345679013,0)" xlink:href="#av"/><use transform="matrix(0.06172839506172839,0,0,0.06172839506172839,56.66666666666667,0)" xlink:href="#ap"/><use transform="matrix(0.06172839506172839,0,0,0.06172839506172839,69.01234567901236,0)" xlink:href="#aF"/></g><g id="n"><use transform="matrix(0.06172839506172839,0,0,0.06172839506172839,0,0)" xlink:href="#aE"/><use transform="matrix(0.06172839506172839,0,0,0.06172839506172839,18.456790123456788,0)" xlink:href="#at"/><use transform="matrix(0.06172839506172839,0,0,0.06172839506172839,30.80246913580247,0)" xlink:href="#au"/><use transform="matrix(0.06172839506172839,0,0,0.06172839506172839,41.91358024691358,0)" xlink:href="#az"/><use transform="matrix(0.06172839506172839,0,0,0.06172839506172839,54.25925925925926,0)" xlink:href="#av"/><use transform="matrix(0.06172839506172839,0,0,0.06172839506172839,59.135802469135804,0)" xlink:href="#ap"/><use transform="matrix(0.06172839506172839,0,0,0.06172839506172839,71.48148148148148,0)" xlink:href="#ar"/><use transform="matrix(0.06172839506172839,0,0,0.06172839506172839,83.82716049382717,0)" xlink:href="#ay"/></g><path d="M84 4C-5 8 30-112 23-190h32v120c0 31 7 50 39 49 72-2 45-101 50-169h31l1 190h-30c-1-10 1-25-2-33-11 22-28 36-60 37" id="aN"/><g id="o"><use transform="matrix(0.06172839506172839,0,0,0.06172839506172839,0,0)" xlink:href="#aL"/><use transform="matrix(0.06172839506172839,0,0,0.06172839506172839,15.987654320987653,0)" xlink:href="#aN"/><use transform="matrix(0.06172839506172839,0,0,0.06172839506172839,28.333333333333332,0)" xlink:href="#aq"/><use transform="matrix(0.06172839506172839,0,0,0.06172839506172839,34.50617283950617,0)" xlink:href="#aq"/><use transform="matrix(0.06172839506172839,0,0,0.06172839506172839,40.67901234567901,0)" xlink:href="#av"/><use transform="matrix(0.06172839506172839,0,0,0.06172839506172839,45.55555555555556,0)" xlink:href="#ap"/><use transform="matrix(0.06172839506172839,0,0,0.06172839506172839,57.901234567901234,0)" xlink:href="#aF"/></g><g id="p"><use transform="matrix(0.06172839506172839,0,0,0.06172839506172839,0,0)" xlink:href="#aE"/><use transform="matrix(0.06172839506172839,0,0,0.06172839506172839,18.456790123456788,0)" xlink:href="#at"/><use transform="matrix(0.06172839506172839,0,0,0.06172839506172839,30.80246913580247,0)" xlink:href="#au"/><use transform="matrix(0.06172839506172839,0,0,0.06172839506172839,41.91358024691358,0)" xlink:href="#az"/><use transform="matrix(0.06172839506172839,0,0,0.06172839506172839,54.25925925925926,0)" xlink:href="#av"/><use transform="matrix(0.06172839506172839,0,0,0.06172839506172839,59.135802469135804,0)" xlink:href="#ap"/><use transform="matrix(0.06172839506172839,0,0,0.06172839506172839,71.48148148148148,0)" xlink:href="#ar"/><use transform="matrix(0.06172839506172839,0,0,0.06172839506172839,83.82716049382717,0)" xlink:href="#ay"/></g><path d="M68-38c1 34 0 65-14 84H32c9-13 17-26 17-46H33v-38h35" id="aO"/><g id="q"><use transform="matrix(0.06172839506172839,0,0,0.06172839506172839,0,0)" xlink:href="#aH"/><use transform="matrix(0.06172839506172839,0,0,0.06172839506172839,14.814814814814813,0)" xlink:href="#ay"/><use transform="matrix(0.06172839506172839,0,0,0.06172839506172839,25.925925925925924,0)" xlink:href="#ay"/><use transform="matrix(0.06172839506172839,0,0,0.06172839506172839,37.03703703703704,0)" xlink:href="#ar"/><use transform="matrix(0.06172839506172839,0,0,0.06172839506172839,49.382716049382715,0)" xlink:href="#aq"/><use transform="matrix(0.06172839506172839,0,0,0.06172839506172839,55.55555555555556,0)" xlink:href="#ay"/><use transform="matrix(0.06172839506172839,0,0,0.06172839506172839,66.66666666666667,0)" xlink:href="#aO"/></g><g id="r"><use transform="matrix(0.06172839506172839,0,0,0.06172839506172839,0,0)" xlink:href="#ay"/><use transform="matrix(0.06172839506172839,0,0,0.06172839506172839,11.11111111111111,0)" xlink:href="#ar"/><use transform="matrix(0.06172839506172839,0,0,0.06172839506172839,23.45679012345679,0)" xlink:href="#ap"/><use transform="matrix(0.06172839506172839,0,0,0.06172839506172839,35.80246913580247,0)" xlink:href="#ay"/><use transform="matrix(0.06172839506172839,0,0,0.06172839506172839,46.91358024691358,0)" xlink:href="#aB"/><use transform="matrix(0.06172839506172839,0,0,0.06172839506172839,59.25925925925926,0)" xlink:href="#as"/><use transform="matrix(0.06172839506172839,0,0,0.06172839506172839,66.60493827160494,0)" xlink:href="#ay"/></g><path d="M197 0v-115H63V0H30v-248h33v105h134v-105h34V0h-34" id="aP"/><path d="M194 0L95-120 63-95V0H30v-248h33v124l119-124h40L117-140 236 0h-42" id="aQ"/><path d="M63-220v92h138v28H63V0H30v-248h175v28H63" id="aR"/><g id="s"><use transform="matrix(0.08641975308641976,0,0,0.08641975308641976,0,0)" xlink:href="#aP"/><use transform="matrix(0.08641975308641976,0,0,0.08641975308641976,22.38271604938272,0)" xlink:href="#aQ"/><use transform="matrix(0.08641975308641976,0,0,0.08641975308641976,43.12345679012346,0)" xlink:href="#aR"/><use transform="matrix(0.08641975308641976,0,0,0.08641975308641976,62.04938271604939,0)" xlink:href="#aB"/><use transform="matrix(0.08641975308641976,0,0,0.08641975308641976,79.33333333333334,0)" xlink:href="#aB"/><use transform="matrix(0.08641975308641976,0,0,0.08641975308641976,96.61728395061729,0)" xlink:href="#aC"/></g><path d="M179-190L93 31C79 59 56 82 12 73V49c39 6 53-20 64-50L1-190h34L92-34l54-156h33" id="aS"/><g id="t"><use transform="matrix(0.08641975308641976,0,0,0.08641975308641976,0,0)" xlink:href="#aR"/><use transform="matrix(0.08641975308641976,0,0,0.08641975308641976,18.925925925925927,0)" xlink:href="#at"/><use transform="matrix(0.08641975308641976,0,0,0.08641975308641976,36.20987654320988,0)" xlink:href="#au"/><use transform="matrix(0.08641975308641976,0,0,0.08641975308641976,51.76543209876544,0)" xlink:href="#aq"/><use transform="matrix(0.08641975308641976,0,0,0.08641975308641976,60.40740740740741,0)" xlink:href="#aB"/><use transform="matrix(0.08641975308641976,0,0,0.08641975308641976,77.69135802469137,0)" xlink:href="#as"/><use transform="matrix(0.08641975308641976,0,0,0.08641975308641976,87.97530864197532,0)" xlink:href="#aS"/></g><path d="M24 0v-261h32V0H24" id="aT"/><g id="u"><use transform="matrix(0.06172839506172839,0,0,0.06172839506172839,0,0)" xlink:href="#aI"/><use transform="matrix(0.06172839506172839,0,0,0.06172839506172839,15.987654320987653,0)" xlink:href="#ar"/><use transform="matrix(0.06172839506172839,0,0,0.06172839506172839,28.333333333333332,0)" xlink:href="#at"/><use transform="matrix(0.06172839506172839,0,0,0.06172839506172839,40.67901234567901,0)" xlink:href="#aT"/></g><path d="M127-220V0H93v-220H8v-28h204v28h-85" id="aU"/><g id="v"><use transform="matrix(0.06172839506172839,0,0,0.06172839506172839,0,0)" xlink:href="#aU"/><use transform="matrix(0.06172839506172839,0,0,0.06172839506172839,12.716049382716047,0)" xlink:href="#av"/><use transform="matrix(0.06172839506172839,0,0,0.06172839506172839,17.592592592592588,0)" xlink:href="#aJ"/><use transform="matrix(0.06172839506172839,0,0,0.06172839506172839,36.04938271604938,0)" xlink:href="#ar"/></g><g id="w"><use transform="matrix(0.06172839506172839,0,0,0.06172839506172839,0,0)" xlink:href="#aH"/><use transform="matrix(0.06172839506172839,0,0,0.06172839506172839,14.814814814814813,0)" xlink:href="#aT"/><use transform="matrix(0.06172839506172839,0,0,0.06172839506172839,19.691358024691354,0)" xlink:href="#ar"/><use transform="matrix(0.06172839506172839,0,0,0.06172839506172839,32.03703703703703,0)" xlink:href="#as"/><use transform="matrix(0.06172839506172839,0,0,0.06172839506172839,39.38271604938271,0)" xlink:href="#aq"/><use transform="matrix(0.06172839506172839,0,0,0.06172839506172839,45.55555555555555,0)" xlink:href="#ay"/></g><path d="M87 75C49 33 22-17 22-94c0-76 28-126 65-167h31c-38 41-64 92-64 168S80 34 118 75H87" id="aV"/><path d="M30 0v-248h187v28H63v79h144v27H63v87h162V0H30" id="aW"/><g id="x"><use transform="matrix(0.06172839506172839,0,0,0.06172839506172839,0,0)" xlink:href="#aV"/><use transform="matrix(0.06172839506172839,0,0,0.06172839506172839,7.345679012345679,0)" xlink:href="#aW"/><use transform="matrix(0.06172839506172839,0,0,0.06172839506172839,22.160493827160494,0)" xlink:href="#aJ"/><use transform="matrix(0.06172839506172839,0,0,0.06172839506172839,40.61728395061728,0)" xlink:href="#at"/><use transform="matrix(0.06172839506172839,0,0,0.06172839506172839,52.962962962962955,0)" xlink:href="#av"/><use transform="matrix(0.06172839506172839,0,0,0.06172839506172839,57.8395061728395,0)" xlink:href="#aT"/><use transform="matrix(0.06172839506172839,0,0,0.06172839506172839,62.716049382716044,0)" xlink:href="#ay"/><use transform="matrix(0.06172839506172839,0,0,0.06172839506172839,73.82716049382715,0)" xlink:href="#aO"/></g><path d="M141 0L90-78 38 0H4l68-98-65-92h35l48 74 47-74h35l-64 92 68 98h-35" id="aX"/><g id="y"><use transform="matrix(0.06172839506172839,0,0,0.06172839506172839,0,0)" xlink:href="#aU"/><use transform="matrix(0.06172839506172839,0,0,0.06172839506172839,11.049382716049381,0)" xlink:href="#ar"/><use transform="matrix(0.06172839506172839,0,0,0.06172839506172839,23.39506172839506,0)" xlink:href="#aX"/><use transform="matrix(0.06172839506172839,0,0,0.06172839506172839,34.50617283950617,0)" xlink:href="#aq"/></g><g id="z"><use transform="matrix(0.06172839506172839,0,0,0.06172839506172839,0,0)" xlink:href="#aE"/><use transform="matrix(0.06172839506172839,0,0,0.06172839506172839,18.456790123456788,0)" xlink:href="#ar"/><use transform="matrix(0.06172839506172839,0,0,0.06172839506172839,30.80246913580247,0)" xlink:href="#ay"/><use transform="matrix(0.06172839506172839,0,0,0.06172839506172839,41.91358024691358,0)" xlink:href="#ay"/><use transform="matrix(0.06172839506172839,0,0,0.06172839506172839,53.0246913580247,0)" xlink:href="#at"/><use transform="matrix(0.06172839506172839,0,0,0.06172839506172839,65.37037037037038,0)" xlink:href="#aF"/><use transform="matrix(0.06172839506172839,0,0,0.06172839506172839,77.71604938271606,0)" xlink:href="#ar"/><use transform="matrix(0.06172839506172839,0,0,0.06172839506172839,90.06172839506175,0)" xlink:href="#ay"/><use transform="matrix(0.06172839506172839,0,0,0.06172839506172839,101.17283950617286,0)" xlink:href="#aO"/></g><g id="A"><use transform="matrix(0.06172839506172839,0,0,0.06172839506172839,0,0)" xlink:href="#aU"/><use transform="matrix(0.06172839506172839,0,0,0.06172839506172839,12.716049382716047,0)" xlink:href="#av"/><use transform="matrix(0.06172839506172839,0,0,0.06172839506172839,17.592592592592588,0)" xlink:href="#au"/><use transform="matrix(0.06172839506172839,0,0,0.06172839506172839,28.7037037037037,0)" xlink:href="#aM"/><use transform="matrix(0.06172839506172839,0,0,0.06172839506172839,39.81481481481481,0)" xlink:href="#ar"/><use transform="matrix(0.06172839506172839,0,0,0.06172839506172839,52.16049382716049,0)" xlink:href="#aq"/><use transform="matrix(0.06172839506172839,0,0,0.06172839506172839,58.33333333333333,0)" xlink:href="#ay"/></g><path d="M33-261c38 41 65 92 65 168S71 34 33 75H2C39 34 66-17 66-93S39-220 2-261h31" id="aY"/><g id="B"><use transform="matrix(0.06172839506172839,0,0,0.06172839506172839,0,0)" xlink:href="#aG"/><use transform="matrix(0.06172839506172839,0,0,0.06172839506172839,14.814814814814813,0)" xlink:href="#aS"/><use transform="matrix(0.06172839506172839,0,0,0.06172839506172839,25.925925925925924,0)" xlink:href="#ay"/><use transform="matrix(0.06172839506172839,0,0,0.06172839506172839,37.03703703703704,0)" xlink:href="#aq"/><use transform="matrix(0.06172839506172839,0,0,0.06172839506172839,43.20987654320988,0)" xlink:href="#ar"/><use transform="matrix(0.06172839506172839,0,0,0.06172839506172839,55.55555555555556,0)" xlink:href="#aJ"/><use transform="matrix(0.06172839506172839,0,0,0.06172839506172839,74.01234567901234,0)" xlink:href="#aY"/></g><path d="M9 0v-24l116-142H16v-24h144v24L44-24h123V0H9" id="aZ"/><g id="C"><use transform="matrix(0.05925925925925927,0,0,0.05925925925925927,0,0)" xlink:href="#aH"/><use transform="matrix(0.05925925925925927,0,0,0.05925925925925927,14.222222222222225,0)" xlink:href="#ap"/><use transform="matrix(0.05925925925925927,0,0,0.05925925925925927,26.074074074074076,0)" xlink:href="#at"/><use transform="matrix(0.05925925925925927,0,0,0.05925925925925927,37.92592592592593,0)" xlink:href="#aT"/><use transform="matrix(0.05925925925925927,0,0,0.05925925925925927,42.607407407407415,0)" xlink:href="#aS"/><use transform="matrix(0.05925925925925927,0,0,0.05925925925925927,53.27407407407408,0)" xlink:href="#aZ"/><use transform="matrix(0.05925925925925927,0,0,0.05925925925925927,63.94074074074075,0)" xlink:href="#ar"/></g><g id="D"><use transform="matrix(0.05925925925925927,0,0,0.05925925925925927,0,0)" xlink:href="#aC"/><use transform="matrix(0.05925925925925927,0,0,0.05925925925925927,11.851851851851853,0)" xlink:href="#at"/><use transform="matrix(0.05925925925925927,0,0,0.05925925925925927,23.703703703703706,0)" xlink:href="#aq"/><use transform="matrix(0.05925925925925927,0,0,0.05925925925925927,29.629629629629633,0)" xlink:href="#at"/></g><g id="E"><use transform="matrix(0.05925925925925927,0,0,0.05925925925925927,0,0)" xlink:href="#at"/><use transform="matrix(0.05925925925925927,0,0,0.05925925925925927,11.851851851851853,0)" xlink:href="#ap"/><use transform="matrix(0.05925925925925927,0,0,0.05925925925925927,23.703703703703706,0)" xlink:href="#aC"/></g><g id="F"><use transform="matrix(0.05925925925925927,0,0,0.05925925925925927,0,0)" xlink:href="#aC"/><use transform="matrix(0.05925925925925927,0,0,0.05925925925925927,11.851851851851853,0)" xlink:href="#ar"/><use transform="matrix(0.05925925925925927,0,0,0.05925925925925927,23.703703703703706,0)" xlink:href="#aq"/><use transform="matrix(0.05925925925925927,0,0,0.05925925925925927,29.629629629629633,0)" xlink:href="#ar"/><use transform="matrix(0.05925925925925927,0,0,0.05925925925925927,41.48148148148149,0)" xlink:href="#au"/><use transform="matrix(0.05925925925925927,0,0,0.05925925925925927,52.14814814814815,0)" xlink:href="#aq"/></g><g id="G"><use transform="matrix(0.05925925925925927,0,0,0.05925925925925927,0,0)" xlink:href="#at"/><use transform="matrix(0.05925925925925927,0,0,0.05925925925925927,11.851851851851853,0)" xlink:href="#ap"/><use transform="matrix(0.05925925925925927,0,0,0.05925925925925927,23.703703703703706,0)" xlink:href="#aB"/><use transform="matrix(0.05925925925925927,0,0,0.05925925925925927,35.55555555555556,0)" xlink:href="#aJ"/><use transform="matrix(0.05925925925925927,0,0,0.05925925925925927,53.27407407407408,0)" xlink:href="#at"/><use transform="matrix(0.05925925925925927,0,0,0.05925925925925927,65.12592592592593,0)" xlink:href="#aT"/><use transform="matrix(0.05925925925925927,0,0,0.05925925925925927,69.80740740740741,0)" xlink:href="#av"/><use transform="matrix(0.05925925925925927,0,0,0.05925925925925927,74.4888888888889,0)" xlink:href="#ar"/><use transform="matrix(0.05925925925925927,0,0,0.05925925925925927,86.34074074074074,0)" xlink:href="#ay"/></g><path d="M16-82v-28h88v28H16" id="ba"/><g id="H"><use transform="matrix(0.06172839506172839,0,0,0.06172839506172839,0,0)" xlink:href="#aI"/><use transform="matrix(0.06172839506172839,0,0,0.06172839506172839,15.987654320987653,0)" xlink:href="#ar"/><use transform="matrix(0.06172839506172839,0,0,0.06172839506172839,28.333333333333332,0)" xlink:href="#at"/><use transform="matrix(0.06172839506172839,0,0,0.06172839506172839,40.67901234567901,0)" xlink:href="#aT"/><use transform="matrix(0.06172839506172839,0,0,0.06172839506172839,45.55555555555556,0)" xlink:href="#ba"/><use transform="matrix(0.06172839506172839,0,0,0.06172839506172839,52.901234567901234,0)" xlink:href="#aq"/><use transform="matrix(0.06172839506172839,0,0,0.06172839506172839,59.074074074074076,0)" xlink:href="#av"/><use transform="matrix(0.06172839506172839,0,0,0.06172839506172839,63.95061728395061,0)" xlink:href="#aJ"/><use transform="matrix(0.06172839506172839,0,0,0.06172839506172839,82.4074074074074,0)" xlink:href="#ar"/></g><g id="I"><use transform="matrix(0.06172839506172839,0,0,0.06172839506172839,0,0)" xlink:href="#aC"/><use transform="matrix(0.06172839506172839,0,0,0.06172839506172839,12.345679012345679,0)" xlink:href="#at"/><use transform="matrix(0.06172839506172839,0,0,0.06172839506172839,24.691358024691358,0)" xlink:href="#aq"/><use transform="matrix(0.06172839506172839,0,0,0.06172839506172839,30.864197530864196,0)" xlink:href="#at"/></g><g id="J"><use transform="matrix(0.06172839506172839,0,0,0.06172839506172839,0,0)" xlink:href="#ay"/><use transform="matrix(0.06172839506172839,0,0,0.06172839506172839,11.11111111111111,0)" xlink:href="#aq"/><use transform="matrix(0.06172839506172839,0,0,0.06172839506172839,17.28395061728395,0)" xlink:href="#as"/><use transform="matrix(0.06172839506172839,0,0,0.06172839506172839,24.629629629629626,0)" xlink:href="#ar"/><use transform="matrix(0.06172839506172839,0,0,0.06172839506172839,36.9753086419753,0)" xlink:href="#at"/><use transform="matrix(0.06172839506172839,0,0,0.06172839506172839,49.32098765432098,0)" xlink:href="#aJ"/></g><g id="K"><use transform="matrix(0.06172839506172839,0,0,0.06172839506172839,0,0)" xlink:href="#ao"/><use transform="matrix(0.06172839506172839,0,0,0.06172839506172839,6.172839506172839,0)" xlink:href="#aB"/><use transform="matrix(0.06172839506172839,0,0,0.06172839506172839,18.51851851851852,0)" xlink:href="#aU"/></g><g id="L"><use transform="matrix(0.06172839506172839,0,0,0.06172839506172839,0,0)" xlink:href="#ax"/><use transform="matrix(0.06172839506172839,0,0,0.06172839506172839,15.987654320987653,0)" xlink:href="#at"/><use transform="matrix(0.06172839506172839,0,0,0.06172839506172839,28.333333333333332,0)" xlink:href="#aq"/><use transform="matrix(0.06172839506172839,0,0,0.06172839506172839,34.50617283950617,0)" xlink:href="#at"/></g><g id="M"><use transform="matrix(0.06172839506172839,0,0,0.06172839506172839,0,0)" xlink:href="#ao"/><use transform="matrix(0.06172839506172839,0,0,0.06172839506172839,6.172839506172839,0)" xlink:href="#ap"/><use transform="matrix(0.06172839506172839,0,0,0.06172839506172839,18.51851851851852,0)" xlink:href="#aF"/><use transform="matrix(0.06172839506172839,0,0,0.06172839506172839,30.864197530864196,0)" xlink:href="#ar"/><use transform="matrix(0.06172839506172839,0,0,0.06172839506172839,43.20987654320987,0)" xlink:href="#ay"/><use transform="matrix(0.06172839506172839,0,0,0.06172839506172839,54.32098765432099,0)" xlink:href="#aq"/><use transform="matrix(0.06172839506172839,0,0,0.06172839506172839,60.49382716049383,0)" xlink:href="#av"/><use transform="matrix(0.06172839506172839,0,0,0.06172839506172839,65.37037037037037,0)" xlink:href="#aB"/><use transform="matrix(0.06172839506172839,0,0,0.06172839506172839,77.71604938271605,0)" xlink:href="#ap"/></g><g id="N"><use transform="matrix(0.06172839506172839,0,0,0.06172839506172839,0,0)" xlink:href="#aH"/><use transform="matrix(0.06172839506172839,0,0,0.06172839506172839,14.814814814814813,0)" xlink:href="#ap"/><use transform="matrix(0.06172839506172839,0,0,0.06172839506172839,27.160493827160494,0)" xlink:href="#aB"/><use transform="matrix(0.06172839506172839,0,0,0.06172839506172839,39.50617283950617,0)" xlink:href="#aJ"/><use transform="matrix(0.06172839506172839,0,0,0.06172839506172839,57.96296296296296,0)" xlink:href="#at"/><use transform="matrix(0.06172839506172839,0,0,0.06172839506172839,70.30864197530865,0)" xlink:href="#aT"/><use transform="matrix(0.06172839506172839,0,0,0.06172839506172839,75.18518518518519,0)" xlink:href="#aS"/></g><g id="O"><use transform="matrix(0.06172839506172839,0,0,0.06172839506172839,0,0)" xlink:href="#ax"/><use transform="matrix(0.06172839506172839,0,0,0.06172839506172839,15.987654320987653,0)" xlink:href="#ar"/><use transform="matrix(0.06172839506172839,0,0,0.06172839506172839,28.333333333333332,0)" xlink:href="#aq"/><use transform="matrix(0.06172839506172839,0,0,0.06172839506172839,34.50617283950617,0)" xlink:href="#ar"/><use transform="matrix(0.06172839506172839,0,0,0.06172839506172839,46.85185185185185,0)" xlink:href="#au"/><use transform="matrix(0.06172839506172839,0,0,0.06172839506172839,57.96296296296296,0)" xlink:href="#aq"/><use transform="matrix(0.06172839506172839,0,0,0.06172839506172839,64.1358024691358,0)" xlink:href="#av"/><use transform="matrix(0.06172839506172839,0,0,0.06172839506172839,69.01234567901234,0)" xlink:href="#aB"/><use transform="matrix(0.06172839506172839,0,0,0.06172839506172839,81.35802469135803,0)" xlink:href="#ap"/></g><path d="M30 0v-248h33v221h125V0H30" id="bb"/><g id="P"><use transform="matrix(0.06172839506172839,0,0,0.06172839506172839,0,0)" xlink:href="#aE"/><use transform="matrix(0.06172839506172839,0,0,0.06172839506172839,18.456790123456788,0)" xlink:href="#bb"/></g><g id="Q"><use transform="matrix(0.06172839506172839,0,0,0.06172839506172839,0,0)" xlink:href="#aE"/><use transform="matrix(0.06172839506172839,0,0,0.06172839506172839,18.456790123456788,0)" xlink:href="#aB"/><use transform="matrix(0.06172839506172839,0,0,0.06172839506172839,30.80246913580247,0)" xlink:href="#aC"/><use transform="matrix(0.06172839506172839,0,0,0.06172839506172839,43.148148148148145,0)" xlink:href="#ar"/><use transform="matrix(0.06172839506172839,0,0,0.06172839506172839,55.49382716049382,0)" xlink:href="#aT"/></g><path fill="#693cc5" d="M199 0l-22-63H83L61 0H9l90-248h61L250 0h-51zm-33-102l-36-108c-10 38-24 72-36 108h72" id="bc"/><path fill="#693cc5" d="M135-194c87-1 58 113 63 194h-50c-7-57 23-157-34-157-59 0-34 97-39 157H25l-1-190h47c2 12-1 28 3 38 12-26 28-41 61-42" id="bd"/><path fill="#693cc5" d="M110-194c64 0 96 36 96 99 0 64-35 99-97 99-61 0-95-36-95-99 0-62 34-99 96-99zm-1 164c35 0 45-28 45-65 0-40-10-65-43-65-34 0-45 26-45 65 0 36 10 65 43 65" id="be"/><path fill="#693cc5" d="M220-157c-53 9-28 100-34 157h-49v-107c1-27-5-49-29-50C55-147 81-57 75 0H25l-1-190h47c2 12-1 28 3 38 10-53 101-56 108 0 13-22 24-43 59-42 82 1 51 116 57 194h-49v-107c-1-25-5-48-29-50" id="bf"/><path fill="#693cc5" d="M133-34C117-15 103 5 69 4 32 3 11-16 11-54c-1-60 55-63 116-61 1-26-3-47-28-47-18 1-26 9-28 27l-52-2c7-38 36-58 82-57s74 22 75 68l1 82c-1 14 12 18 25 15v27c-30 8-71 5-69-32zm-48 3c29 0 43-24 42-57-32 0-66-3-65 30 0 17 8 27 23 27" id="bg"/><path fill="#693cc5" d="M25 0v-261h50V0H25" id="bh"/><path fill="#693cc5" d="M123 10C108 53 80 86 19 72V37c35 8 53-11 59-39L3-190h52l48 148c12-52 28-100 44-148h51" id="bi"/><g id="R"><use transform="matrix(0.08641975308641976,0,0,0.08641975308641976,0,0)" xlink:href="#bc"/><use transform="matrix(0.08641975308641976,0,0,0.08641975308641976,22.38271604938272,0)" xlink:href="#bd"/><use transform="matrix(0.08641975308641976,0,0,0.08641975308641976,41.308641975308646,0)" xlink:href="#be"/><use transform="matrix(0.08641975308641976,0,0,0.08641975308641976,60.23456790123458,0)" xlink:href="#bf"/><use transform="matrix(0.08641975308641976,0,0,0.08641975308641976,87.88888888888889,0)" xlink:href="#bg"/><use transform="matrix(0.08641975308641976,0,0,0.08641975308641976,105.17283950617283,0)" xlink:href="#bh"/><use transform="matrix(0.08641975308641976,0,0,0.08641975308641976,113.81481481481481,0)" xlink:href="#bi"/></g><path fill="#693cc5" d="M24-248c120-7 223 5 221 122C244-46 201 0 124 0H24v-248zM76-40c74 7 117-18 117-86 0-67-45-88-117-82v168" id="bj"/><path fill="#693cc5" d="M185-48c-13 30-37 53-82 52C43 2 14-33 14-96s30-98 90-98c62 0 83 45 84 108H66c0 31 8 55 39 56 18 0 30-7 34-22zm-45-69c5-46-57-63-70-21-2 6-4 13-4 21h74" id="bk"/><path fill="#693cc5" d="M115-3C79 11 28 4 28-45v-112H4v-33h27l15-45h31v45h36v33H77v99c-1 23 16 31 38 25v30" id="bl"/><path fill="#693cc5" d="M190-63c-7 42-38 67-86 67-59 0-84-38-90-98-12-110 154-137 174-36l-49 2c-2-19-15-32-35-32-30 0-35 28-38 64-6 74 65 87 74 30" id="bm"/><path fill="#693cc5" d="M25-224v-37h50v37H25zM25 0v-190h50V0H25" id="bn"/><g id="S"><use transform="matrix(0.08641975308641976,0,0,0.08641975308641976,0,0)" xlink:href="#bj"/><use transform="matrix(0.08641975308641976,0,0,0.08641975308641976,22.38271604938272,0)" xlink:href="#bk"/><use transform="matrix(0.08641975308641976,0,0,0.08641975308641976,39.66666666666667,0)" xlink:href="#bl"/><use transform="matrix(0.08641975308641976,0,0,0.08641975308641976,49.95061728395062,0)" xlink:href="#bk"/><use transform="matrix(0.08641975308641976,0,0,0.08641975308641976,67.23456790123457,0)" xlink:href="#bm"/><use transform="matrix(0.08641975308641976,0,0,0.08641975308641976,84.51851851851852,0)" xlink:href="#bl"/><use transform="matrix(0.08641975308641976,0,0,0.08641975308641976,94.80246913580245,0)" xlink:href="#bn"/><use transform="matrix(0.08641975308641976,0,0,0.08641975308641976,103.44444444444443,0)" xlink:href="#be"/><use transform="matrix(0.08641975308641976,0,0,0.08641975308641976,122.37037037037037,0)" xlink:href="#bd"/></g><g id="T"><use transform="matrix(0.05925925925925927,0,0,0.05925925925925927,0,0)" xlink:href="#aI"/><use transform="matrix(0.05925925925925927,0,0,0.05925925925925927,15.34814814814815,0)" xlink:href="#at"/><use transform="matrix(0.05925925925925927,0,0,0.05925925925925927,27.200000000000003,0)" xlink:href="#aD"/></g><g id="U"><use transform="matrix(0.05925925925925927,0,0,0.05925925925925927,0,0)" xlink:href="#aC"/><use transform="matrix(0.05925925925925927,0,0,0.05925925925925927,11.851851851851853,0)" xlink:href="#at"/><use transform="matrix(0.05925925925925927,0,0,0.05925925925925927,23.703703703703706,0)" xlink:href="#aq"/><use transform="matrix(0.05925925925925927,0,0,0.05925925925925927,29.629629629629633,0)" xlink:href="#at"/><use transform="matrix(0.05925925925925927,0,0,0.05925925925925927,41.48148148148149,0)" xlink:href="#aO"/></g><path d="M115-194c55 1 70 41 70 98S169 2 115 4C84 4 66-9 55-30l1 105H24l-1-265h31l2 30c10-21 28-34 59-34zm-8 174c40 0 45-34 45-75s-6-73-45-74c-42 0-51 32-51 76 0 43 10 73 51 73" id="bo"/><g id="V"><use transform="matrix(0.05925925925925927,0,0,0.05925925925925927,0,0)" xlink:href="#bo"/><use transform="matrix(0.05925925925925927,0,0,0.05925925925925927,11.851851851851853,0)" xlink:href="#as"/><use transform="matrix(0.05925925925925927,0,0,0.05925925925925927,18.903703703703705,0)" xlink:href="#aB"/><use transform="matrix(0.05925925925925927,0,0,0.05925925925925927,30.75555555555556,0)" xlink:href="#au"/><use transform="matrix(0.05925925925925927,0,0,0.05925925925925927,41.42222222222223,0)" xlink:href="#ar"/><use transform="matrix(0.05925925925925927,0,0,0.05925925925925927,53.274074074074086,0)" xlink:href="#ay"/><use transform="matrix(0.05925925925925927,0,0,0.05925925925925927,63.94074074074075,0)" xlink:href="#ay"/><use transform="matrix(0.05925925925925927,0,0,0.05925925925925927,74.60740740740742,0)" xlink:href="#ar"/><use transform="matrix(0.05925925925925927,0,0,0.05925925925925927,86.45925925925927,0)" xlink:href="#aC"/></g><path d="M101-234c-31-9-42 10-38 44h38v23H63V0H32v-167H5v-23h27c-7-52 17-82 69-68v24" id="bp"/><g id="W"><use transform="matrix(0.05925925925925927,0,0,0.05925925925925927,0,0)" xlink:href="#av"/><use transform="matrix(0.05925925925925927,0,0,0.05925925925925927,4.681481481481482,0)" xlink:href="#ap"/><use transform="matrix(0.05925925925925927,0,0,0.05925925925925927,16.533333333333335,0)" xlink:href="#bp"/><use transform="matrix(0.05925925925925927,0,0,0.05925925925925927,22.459259259259262,0)" xlink:href="#ar"/><use transform="matrix(0.05925925925925927,0,0,0.05925925925925927,34.31111111111112,0)" xlink:href="#as"/><use transform="matrix(0.05925925925925927,0,0,0.05925925925925927,41.36296296296297,0)" xlink:href="#ar"/><use transform="matrix(0.05925925925925927,0,0,0.05925925925925927,53.21481481481482,0)" xlink:href="#ap"/><use transform="matrix(0.05925925925925927,0,0,0.05925925925925927,65.06666666666668,0)" xlink:href="#au"/><use transform="matrix(0.05925925925925927,0,0,0.05925925925925927,75.73333333333335,0)" xlink:href="#ar"/></g><g id="X"><use transform="matrix(0.05925925925925927,0,0,0.05925925925925927,0,0)" xlink:href="#as"/><use transform="matrix(0.05925925925925927,0,0,0.05925925925925927,7.051851851851853,0)" xlink:href="#ar"/><use transform="matrix(0.05925925925925927,0,0,0.05925925925925927,18.903703703703705,0)" xlink:href="#ay"/><use transform="matrix(0.05925925925925927,0,0,0.05925925925925927,29.570370370370373,0)" xlink:href="#aN"/><use transform="matrix(0.05925925925925927,0,0,0.05925925925925927,41.422222222222224,0)" xlink:href="#aT"/><use transform="matrix(0.05925925925925927,0,0,0.05925925925925927,46.10370370370371,0)" xlink:href="#aq"/><use transform="matrix(0.05925925925925927,0,0,0.05925925925925927,52.02962962962963,0)" xlink:href="#ay"/><use transform="matrix(0.05925925925925927,0,0,0.05925925925925927,62.69629629629629,0)" xlink:href="#aO"/></g><g id="Y"><use transform="matrix(0.05925925925925927,0,0,0.05925925925925927,0,0)" xlink:href="#aq"/><use transform="matrix(0.05925925925925927,0,0,0.05925925925925927,5.9259259259259265,0)" xlink:href="#as"/><use transform="matrix(0.05925925925925927,0,0,0.05925925925925927,12.97777777777778,0)" xlink:href="#at"/><use transform="matrix(0.05925925925925927,0,0,0.05925925925925927,24.829629629629633,0)" xlink:href="#av"/><use transform="matrix(0.05925925925925927,0,0,0.05925925925925927,29.511111111111113,0)" xlink:href="#ap"/><use transform="matrix(0.05925925925925927,0,0,0.05925925925925927,41.36296296296297,0)" xlink:href="#ar"/><use transform="matrix(0.05925925925925927,0,0,0.05925925925925927,53.21481481481482,0)" xlink:href="#aC"/></g><g id="Z"><use transform="matrix(0.05925925925925927,0,0,0.05925925925925927,0,0)" xlink:href="#aJ"/><use transform="matrix(0.05925925925925927,0,0,0.05925925925925927,17.718518518518522,0)" xlink:href="#aB"/><use transform="matrix(0.05925925925925927,0,0,0.05925925925925927,29.570370370370377,0)" xlink:href="#aC"/><use transform="matrix(0.05925925925925927,0,0,0.05925925925925927,41.42222222222223,0)" xlink:href="#ar"/><use transform="matrix(0.05925925925925927,0,0,0.05925925925925927,53.274074074074086,0)" xlink:href="#aT"/><use transform="matrix(0.05925925925925927,0,0,0.05925925925925927,57.95555555555557,0)" xlink:href="#ay"/></g><path fill="#3f8624" d="M24-248c120-7 223 5 221 122C244-46 201 0 124 0H24v-248zM76-40c74 7 117-18 117-86 0-67-45-88-117-82v168" id="bq"/><path fill="#3f8624" d="M133-34C117-15 103 5 69 4 32 3 11-16 11-54c-1-60 55-63 116-61 1-26-3-47-28-47-18 1-26 9-28 27l-52-2c7-38 36-58 82-57s74 22 75 68l1 82c-1 14 12 18 25 15v27c-30 8-71 5-69-32zm-48 3c29 0 43-24 42-57-32 0-66-3-65 30 0 17 8 27 23 27" id="br"/><path fill="#3f8624" d="M115-3C79 11 28 4 28-45v-112H4v-33h27l15-45h31v45h36v33H77v99c-1 23 16 31 38 25v30" id="bs"/><g id="aa"><use transform="matrix(0.07407407407407408,0,0,0.07407407407407408,0,0)" xlink:href="#bq"/><use transform="matrix(0.07407407407407408,0,0,0.07407407407407408,19.185185185185187,0)" xlink:href="#br"/><use transform="matrix(0.07407407407407408,0,0,0.07407407407407408,34,0)" xlink:href="#bs"/><use transform="matrix(0.07407407407407408,0,0,0.07407407407407408,42.814814814814824,0)" xlink:href="#br"/></g><path fill="#3f8624" d="M24 0v-248h52v208h133V0H24" id="bt"/><path fill="#3f8624" d="M147 0L96-86 75-71V0H25v-261h50v150l67-79h53l-66 74L201 0h-54" id="bu"/><path fill="#3f8624" d="M185-48c-13 30-37 53-82 52C43 2 14-33 14-96s30-98 90-98c62 0 83 45 84 108H66c0 31 8 55 39 56 18 0 30-7 34-22zm-45-69c5-46-57-63-70-21-2 6-4 13-4 21h74" id="bv"/><g id="ab"><use transform="matrix(0.07407407407407408,0,0,0.07407407407407408,0,0)" xlink:href="#bt"/><use transform="matrix(0.07407407407407408,0,0,0.07407407407407408,16.222222222222225,0)" xlink:href="#br"/><use transform="matrix(0.07407407407407408,0,0,0.07407407407407408,31.03703703703704,0)" xlink:href="#bu"/><use transform="matrix(0.07407407407407408,0,0,0.07407407407407408,45.851851851851855,0)" xlink:href="#bv"/></g><g id="ac"><use transform="matrix(0.06172839506172839,0,0,0.06172839506172839,0,0)" xlink:href="#aH"/><use transform="matrix(0.06172839506172839,0,0,0.06172839506172839,14.814814814814813,0)" xlink:href="#aJ"/><use transform="matrix(0.06172839506172839,0,0,0.06172839506172839,33.2716049382716,0)" xlink:href="#at"/><use transform="matrix(0.06172839506172839,0,0,0.06172839506172839,45.61728395061728,0)" xlink:href="#aZ"/><use transform="matrix(0.06172839506172839,0,0,0.06172839506172839,56.72839506172839,0)" xlink:href="#aB"/><use transform="matrix(0.06172839506172839,0,0,0.06172839506172839,69.07407407407408,0)" xlink:href="#ap"/></g><g id="ad"><use transform="matrix(0.06172839506172839,0,0,0.06172839506172839,0,0)" xlink:href="#aH"/><use transform="matrix(0.06172839506172839,0,0,0.06172839506172839,14.814814814814813,0)" xlink:href="#aq"/><use transform="matrix(0.06172839506172839,0,0,0.06172839506172839,20.98765432098765,0)" xlink:href="#az"/><use transform="matrix(0.06172839506172839,0,0,0.06172839506172839,33.33333333333333,0)" xlink:href="#ar"/><use transform="matrix(0.06172839506172839,0,0,0.06172839506172839,45.679012345679006,0)" xlink:href="#ap"/><use transform="matrix(0.06172839506172839,0,0,0.06172839506172839,58.02469135802468,0)" xlink:href="#at"/></g><path fill="#008a0e" d="M238-95c0 69-44 99-111 99C63 4 22-25 22-93v-155h51v151c-1 38 19 59 55 60 90 1 49-130 58-211h52v153" id="bw"/><path fill="#008a0e" d="M137-138c1-29-70-34-71-4 15 46 118 7 119 86 1 83-164 76-172 9l43-7c4 19 20 25 44 25 33 8 57-30 24-41C81-84 22-81 20-136c-2-80 154-74 161-7" id="bx"/><path fill="#008a0e" d="M185-48c-13 30-37 53-82 52C43 2 14-33 14-96s30-98 90-98c62 0 83 45 84 108H66c0 31 8 55 39 56 18 0 30-7 34-22zm-45-69c5-46-57-63-70-21-2 6-4 13-4 21h74" id="by"/><path fill="#008a0e" d="M135-150c-39-12-60 13-60 57V0H25l-1-190h47c2 13-1 29 3 40 6-28 27-53 61-41v41" id="bz"/><g id="ae"><use transform="matrix(0.08641975308641976,0,0,0.08641975308641976,0,0)" xlink:href="#bw"/><use transform="matrix(0.08641975308641976,0,0,0.08641975308641976,22.38271604938272,0)" xlink:href="#bx"/><use transform="matrix(0.08641975308641976,0,0,0.08641975308641976,39.66666666666667,0)" xlink:href="#by"/><use transform="matrix(0.08641975308641976,0,0,0.08641975308641976,56.95061728395062,0)" xlink:href="#bz"/></g><path fill="#008a0e" d="M24 0v-248h52V0H24" id="bA"/><path fill="#008a0e" d="M135-194c87-1 58 113 63 194h-50c-7-57 23-157-34-157-59 0-34 97-39 157H25l-1-190h47c2 12-1 28 3 38 12-26 28-41 61-42" id="bB"/><path fill="#008a0e" d="M115-3C79 11 28 4 28-45v-112H4v-33h27l15-45h31v45h36v33H77v99c-1 23 16 31 38 25v30" id="bC"/><path fill="#008a0e" d="M121-226c-27-7-43 5-38 36h38v33H83V0H34v-157H6v-33h28c-9-59 32-81 87-68v32" id="bD"/><path fill="#008a0e" d="M133-34C117-15 103 5 69 4 32 3 11-16 11-54c-1-60 55-63 116-61 1-26-3-47-28-47-18 1-26 9-28 27l-52-2c7-38 36-58 82-57s74 22 75 68l1 82c-1 14 12 18 25 15v27c-30 8-71 5-69-32zm-48 3c29 0 43-24 42-57-32 0-66-3-65 30 0 17 8 27 23 27" id="bE"/><path fill="#008a0e" d="M190-63c-7 42-38 67-86 67-59 0-84-38-90-98-12-110 154-137 174-36l-49 2c-2-19-15-32-35-32-30 0-35 28-38 64-6 74 65 87 74 30" id="bF"/><g id="af"><use transform="matrix(0.08641975308641976,0,0,0.08641975308641976,0,0)" xlink:href="#bA"/><use transform="matrix(0.08641975308641976,0,0,0.08641975308641976,8.641975308641976,0)" xlink:href="#bB"/><use transform="matrix(0.08641975308641976,0,0,0.08641975308641976,27.567901234567906,0)" xlink:href="#bC"/><use transform="matrix(0.08641975308641976,0,0,0.08641975308641976,37.851851851851855,0)" xlink:href="#by"/><use transform="matrix(0.08641975308641976,0,0,0.08641975308641976,55.13580246913581,0)" xlink:href="#bz"/><use transform="matrix(0.08641975308641976,0,0,0.08641975308641976,67.23456790123458,0)" xlink:href="#bD"/><use transform="matrix(0.08641975308641976,0,0,0.08641975308641976,77.51851851851853,0)" xlink:href="#bE"/><use transform="matrix(0.08641975308641976,0,0,0.08641975308641976,94.80246913580248,0)" xlink:href="#bF"/><use transform="matrix(0.08641975308641976,0,0,0.08641975308641976,112.08641975308643,0)" xlink:href="#by"/><use transform="matrix(0.08641975308641976,0,0,0.08641975308641976,129.37037037037038,0)" xlink:href="#bx"/></g></defs></g></svg>